<?xml version="1.0" encoding="utf-8"?>
<!-- Generator: Adobe Illustrator 23.0.4, SVG Export Plug-In . SVG Version: 6.00 Build 0)  -->
<svg version="1.1" id="Play_Game_Activitiy" xmlns="http://www.w3.org/2000/svg" xmlns:xlink="http://www.w3.org/1999/xlink"
	 x="0px" y="0px" viewBox="0 0 3000 2000" style="enable-background:new 0 0 3000 2000;" xml:space="preserve">
<style type="text/css">
	.st0{fill:#FFFFFF;}
	.st1{font-family:'MyriadPro-Regular';}
	.st2{font-size:25.1368px;}
	.st3{fill:#D8ECF7;}
	.st4{fill:#9AC9E9;}
	.st5{opacity:0.25;}
	.st6{fill:#071B2C;}
	.st7{fill:#575E70;}
	.st8{fill:#4EB698;}
	.st9{fill:#444A54;}
	.st10{fill:#64AB45;}
	.st11{fill:#293033;}
	.st12{fill:#F1F2F2;}
	.st13{fill:#192953;}
	.st14{clip-path:url(#SVGID_2_);fill:#071B2C;}
	.st15{fill:#5E5BA8;}
	.st16{fill:#F79678;}
	.st17{opacity:0.2;fill:#293033;}
	.st18{fill:#1A222A;}
	.st19{fill:#4D7F3B;}
	.st20{fill:#32353D;}
	.st21{fill:#454A56;}
	.st22{fill:#3E8E75;}
	.st23{opacity:0.2;clip-path:url(#SVGID_4_);fill:#293033;}
	.st24{fill:#F05250;}
	.st25{opacity:0.2;clip-path:url(#SVGID_6_);fill:#293033;}
	.st26{fill:#424278;}
	.st27{opacity:0.5;clip-path:url(#SVGID_8_);fill:#071B2C;}
	.st28{fill:#045B88;}
	.st29{opacity:0.2;clip-path:url(#SVGID_10_);fill:#293033;}
	.st30{opacity:0.2;clip-path:url(#SVGID_12_);fill:#293033;}
	.st31{fill:#054760;}
	.st32{fill:#F5BE18;}
</style>
<g>
	<g>
		<g>
			<g>
				<g>
					<text transform="matrix(1 0 0 1 1780.6387 1424.1895)" class="st0 st1 st2">player 1</text>
				</g>
			</g>
		</g>
	</g>
</g>
<g>
	<path class="st3" d="M1764.7,150.2c-47.2-21.1-376.5-168.8-528.9-30.2c-214.3,194.9,147,751.1-58.7,932.9
		c-175.4,155-560.2-141.1-658.9-23.6c-107.4,127.8,151.3,711.5,624,859.6c436.4,136.7,1191.8,4.1,1331.3-546.6
		C2602,835.1,2102.6,301.7,1764.7,150.2z"/>
	<g>
		<circle class="st4" cx="1775.8" cy="528" r="17.9"/>
	</g>
	<g>
		<circle class="st4" cx="2564.7" cy="932.1" r="17.9"/>
	</g>
	<g>
		<circle class="st4" cx="2600.4" cy="1417.7" r="17.9"/>
	</g>
	<g>
		<circle class="st4" cx="431.5" cy="714.9" r="17.9"/>
	</g>
	<g class="st5">
		<path class="st6" d="M1297.8,1662.2c-25.1-13.9-48.6-30.7-74.4-42.7c-16.4-7.6-33.3-13.8-50.4-18.7l-110.7-1.9
			c-67.2,5.8-137.1,21.4-190.4,69.5c-9.2,8.3-18.5,19-18.9,32.2c-0.5,15.4,11,27.1,21.8,36.1c51.9,43.3,111.4,76.8,175.7,87.1
			c48.1,7.7,97.4,2.3,146-3.4c51.9-6,49.8-8.4,101.2-59.4C1297.8,1761.1,1384.8,1710.4,1297.8,1662.2z"/>
	</g>
	<g>
		<path class="st4" d="M2371.3,305.4c0,27,21.9,48.9,48.9,48.9c27,0,48.9-21.9,48.9-48.9c0-27-21.9-48.9-48.9-48.9
			C2393.2,256.5,2371.3,278.4,2371.3,305.4z"/>
		<path class="st4" d="M2371.3,454.7c0,27,21.9,48.9,48.9,48.9c27,0,48.9-21.9,48.9-48.9c0-27-21.9-48.9-48.9-48.9
			C2393.2,405.8,2371.3,427.7,2371.3,454.7z"/>
		<path class="st4" d="M1986.4,292h340.8c0.8,0,1.4-0.6,1.4-1.4v-19.8c0-0.8-0.6-1.4-1.4-1.4h-340.8c-0.8,0-1.4,0.6-1.4,1.4v19.8
			C1985,291.4,1985.6,292,1986.4,292z"/>
		<path class="st4" d="M2138.4,348.4h188.8c0.8,0,1.4-0.6,1.4-1.4v-19.8c0-0.8-0.6-1.4-1.4-1.4h-188.8c-0.8,0-1.4,0.6-1.4,1.4V347
			C2137,347.7,2137.6,348.4,2138.4,348.4z"/>
		<path class="st4" d="M1986.4,439.1h340.8c0.8,0,1.4-0.6,1.4-1.4v-19.8c0-0.8-0.6-1.4-1.4-1.4h-340.8c-0.8,0-1.4,0.6-1.4,1.4v19.8
			C1985,438.5,1985.6,439.1,1986.4,439.1z"/>
		<path class="st4" d="M2138.4,495.5h188.8c0.8,0,1.4-0.6,1.4-1.4v-19.8c0-0.8-0.6-1.4-1.4-1.4h-188.8c-0.8,0-1.4,0.6-1.4,1.4v19.8
			C2137,494.8,2137.6,495.5,2138.4,495.5z"/>
	</g>
	<g>
		<g>
			
				<rect x="978.9" y="401.6" transform="matrix(-1.836970e-16 1 -1 -1.836970e-16 2583.5537 -349.104)" class="st7" width="974.9" height="1431.3"/>
			<rect x="806.6" y="685.7" class="st4" width="1319.4" height="863"/>
		</g>
		<g>
			<path class="st8" d="M431.5,1711.4V936.5c0-55.2,44.8-100,100-100h219.1v974.9H531.5C476.3,1811.4,431.5,1766.6,431.5,1711.4z"/>
			<g>
				<path class="st9" d="M591.1,1088.2c-19.1,0-34.7-15.5-34.7-34.7c0-19.1,15.5-34.7,34.7-34.7c19.1,0,34.7,15.5,34.7,34.7
					C625.8,1072.7,610.2,1088.2,591.1,1088.2z M625.8,1192.9c0-19.1-15.5-34.7-34.7-34.7c-19.1,0-34.7,15.5-34.7,34.7
					c0,19.1,15.5,34.7,34.7,34.7C610.2,1227.6,625.8,1212,625.8,1192.9z M556.1,1123.2c0-19.1-15.5-34.7-34.7-34.7
					c-19.1,0-34.7,15.5-34.7,34.7c0,19.1,15.5,34.7,34.7,34.7C540.5,1157.9,556.1,1142.4,556.1,1123.2z M695.4,1123.2
					c0-19.1-15.5-34.7-34.7-34.7c-19.1,0-34.7,15.5-34.7,34.7c0,19.1,15.5,34.7,34.7,34.7C679.9,1157.9,695.4,1142.4,695.4,1123.2z"
					/>
				<path class="st9" d="M681.4,1523.6c0-49.8-40.5-90.3-90.3-90.3c-49.8,0-90.3,40.5-90.3,90.3c0,49.8,40.5,90.3,90.3,90.3
					C640.9,1613.9,681.4,1573.4,681.4,1523.6z"/>
			</g>
		</g>
		<g>
			<path class="st10" d="M2182,1558.6V583.7h219.1c55.2,0,100,44.8,100,100v774.9c0,55.2-44.8,100-100,100H2182z"/>
			<path class="st9" d="M2341.6,835.4c-19.1,0-34.7-15.5-34.7-34.7c0-19.1,15.5-34.7,34.7-34.7s34.7,15.5,34.7,34.7
				C2376.2,819.9,2360.7,835.4,2341.6,835.4z M2376.2,940.1c0-19.1-15.5-34.7-34.7-34.7s-34.7,15.5-34.7,34.7
				c0,19.1,15.5,34.7,34.7,34.7S2376.2,959.2,2376.2,940.1z M2306.5,870.4c0-19.1-15.5-34.7-34.7-34.7c-19.1,0-34.7,15.5-34.7,34.7
				s15.5,34.7,34.7,34.7C2291,905.1,2306.5,889.5,2306.5,870.4z M2445.9,870.4c0-19.1-15.5-34.7-34.7-34.7
				c-19.1,0-34.7,15.5-34.7,34.7s15.5,34.7,34.7,34.7C2430.3,905.1,2445.9,889.5,2445.9,870.4z"/>
			<path class="st9" d="M2431.8,1270.8c0-49.8-40.5-90.3-90.3-90.3c-49.8,0-90.3,40.5-90.3,90.3c0,49.8,40.5,90.3,90.3,90.3
				C2391.3,1361.1,2431.8,1320.6,2431.8,1270.8z"/>
		</g>
	</g>
	<g>
		<path class="st4" d="M2434.2,1643.1c0.3,2.4-1.5,4.5-3.8,4.8l-37.7,4l4,37.7c0.3,2.4-1.5,4.5-3.8,4.8l-37.7,4l4,37.7
			c0.3,2.4-1.5,4.5-3.8,4.8l-37.7,4l4,37.7c0.3,2.4-1.5,4.5-3.8,4.8c-2.4,0.3-4.5-1.5-4.8-3.8l-4.4-42c-0.3-2.4,1.5-4.5,3.8-4.8
			l37.7-4l-4-37.7c-0.3-2.4,1.5-4.5,3.8-4.8l37.7-4l-4-37.7c-0.3-2.4,1.5-4.5,3.8-4.8l42-4.4
			C2431.8,1639,2433.9,1640.8,2434.2,1643.1z"/>
	</g>
	<g>
		<path class="st4" d="M1626.3,304.9l-6.6,49.6c-0.3,2.4-2.5,4-4.9,3.7l-49.6-6.6c-2.4-0.3-4-2.5-3.7-4.9l6.6-49.6
			c0.3-2.4,2.5-4,4.9-3.7l49.6,6.6C1624.9,300.3,1626.6,302.5,1626.3,304.9z M1611.6,349l5.5-41l-41-5.5l-5.5,41L1611.6,349z"/>
	</g>
	<g>
		<path class="st4" d="M405.6,863.7l-6.6,49.6c-0.3,2.4-2.5,4-4.9,3.7l-49.6-6.6c-2.4-0.3-4-2.5-3.7-4.9l6.6-49.6
			c0.3-2.4,2.5-4,4.9-3.7l49.6,6.6C404.3,859.2,406,861.4,405.6,863.7z M391,907.9l5.5-41l-41-5.5l-5.5,41L391,907.9z"/>
	</g>
	<g>
		<path class="st4" d="M775.7,395.7L746,355.4c-1.4-1.9-1-4.6,0.9-6l40.3-29.7c1.9-1.4,4.6-1,6,0.9l29.7,40.3c1.4,1.9,1,4.6-0.9,6
			l-40.3,29.7C779.8,398.1,777.1,397.6,775.7,395.7z M755.5,353.8l24.5,33.3l33.3-24.5l-24.5-33.3L755.5,353.8z"/>
	</g>
	<g class="st5">
		<path class="st6" d="M2135.1,1675.3c23,16.5,45.9,33.3,68.7,50.2c3.7,2.8,7.6,5.8,9.1,10.2c2,6-1.5,12.8-6.7,16.5
			c-5.2,3.7-11.6,5-17.9,6.1c-57.2,10.1-115.5,11.9-173.6,13.6c-43.9,1.3-87.9,2.6-131.8,4c-24,0.7-48.1,1.4-72-0.4
			c-69.5-5.4-135.6-32.4-197.9-63.7c-33.6-16.9-67.2-35.7-92.3-63.7c-2-2.2-4-4.7-4.3-7.7c-0.3-2.7,0.9-5.3,2.1-7.6
			c12.3-23.3,36.2-38.7,61.3-46.4c25.1-7.7,51.8-8.8,78.1-9.7c11-0.4,21.9-0.8,32.9-1.2L2135.1,1675.3z"/>
	</g>
	<g>
		<path class="st4" d="M1456.8,1728.6c0.1,0.7,0.1,1.5-0.2,2.2c-0.5,1.4-1.8,2.5-3.3,2.8l-52.3,8.9c-1.5,0.3-3.1-0.3-4.1-1.5
			c-1-1.2-1.3-2.8-0.7-4.3l18.5-49.7c0.5-1.4,1.8-2.5,3.3-2.8c1.5-0.3,3.1,0.3,4,1.5l33.8,40.9
			C1456.4,1727.1,1456.7,1727.8,1456.8,1728.6z M1406.9,1732.6l37.5-6.4l-24.3-29.3L1406.9,1732.6z"/>
	</g>
	<g>
		<path class="st4" d="M621.5,701c0.1,0.7,0.1,1.5-0.2,2.2c-0.5,1.4-1.8,2.5-3.3,2.8l-52.3,8.9c-1.5,0.3-3.1-0.3-4.1-1.5
			c-1-1.2-1.3-2.8-0.7-4.3l18.5-49.7c0.5-1.4,1.8-2.5,3.3-2.8c1.5-0.3,3.1,0.3,4.1,1.5l33.8,40.9C621.1,699.6,621.4,700.3,621.5,701
			z M571.6,705.1l37.5-6.4l-24.3-29.3L571.6,705.1z"/>
	</g>
	<g>
		<path class="st4" d="M2691.7,1037.3c0.1,0.7,0.1,1.5-0.2,2.2c-0.5,1.4-1.8,2.5-3.3,2.8l-52.3,8.9c-1.5,0.3-3.1-0.3-4.1-1.5
			c-1-1.2-1.3-2.8-0.7-4.3l18.5-49.7c0.5-1.4,1.8-2.5,3.3-2.8c1.5-0.3,3.1,0.3,4.1,1.5l33.8,40.9
			C2691.3,1035.8,2691.6,1036.5,2691.7,1037.3z M2641.8,1041.4l37.5-6.4l-24.3-29.3L2641.8,1041.4z"/>
	</g>
	<path class="st4" d="M1007,505.9l-8.5,16.2l-16.2-8.5c-2.1-1.1-4.7-0.3-5.8,1.8c-1.1,2.1-0.3,4.7,1.8,5.8l16.2,8.5L986,546
		c-1.1,2.1-0.3,4.7,1.8,5.8c2.1,1.1,4.7,0.3,5.8-1.8l8.5-16.2l16.2,8.5c2.1,1.1,4.7,0.3,5.8-1.8c1.1-2.1,0.3-4.7-1.8-5.8l-16.2-8.5
		l8.5-16.2c1.1-2.1,0.3-4.7-1.8-5.8C1010.7,503,1008.1,503.8,1007,505.9z"/>
	<path class="st4" d="M560.6,555.6c-1.9-3.6-4.9-6.9-8.6-9c0.6-2.6,1.1-5.1,1.1-7.9c0-16.9-12.9-30.7-29.4-32.4
		c1.1-3.9,1.7-7.9,1.7-12c0-23.6-19.1-42.7-42.7-42.7c-17.2,0-32,10.1-38.6,24.9c-4.1-2.4-9-3.9-13.9-3.9
		c-11.6,0-21.4,7.3-25.5,17.4c-4.1-3.2-9.2-5.1-14.8-5.1c-4.5,0-8.8,1.3-12.4,3.4c-7.7-10.7-20.2-17.8-34.5-17.8
		c-21.4,0-39,15.9-41.8,36.5c-2.8-0.6-5.6-0.9-8.4-0.9c-18.9,0-34.7,13.9-37.8,32c-1.7-0.4-3.4-0.6-5.4-0.6
		c-11.2,0-20.6,7.7-23.4,18h334.4V555.6z"/>
	<path class="st4" d="M2468.5,715.9c13,0,24.4,6.8,31,17c3.1,4.9,8.9,7.4,14.5,6.3c2.3-0.5,4.7-0.7,7.2-0.7c2.5,0,5,0.3,7.4,0.8
		c5.2,1.1,10.6-0.9,13.9-5.1c9.7-12.6,24.9-20.7,42.1-20.7c4,0,7.9,0.4,11.6,1.3c5.5,1.2,11.3-0.9,14.6-5.5
		c12.7-17.6,33.4-29.1,56.7-29.1c23.6,0,44.5,11.7,57.2,29.7c2.7,3.9,7.2,6.1,11.9,6c0.2,0,0.5,0,0.7,0c19.4,0,35.3,15,36.6,34.1
		h-36.6h-36.6h-65.6h-37.4h-49.8H2534h-28.9h-10.6h-62.6C2433.2,730.9,2449.1,715.9,2468.5,715.9z"/>
	<path class="st4" d="M1362.6,424.5c-0.1-4-2.7-7.3-6.2-8.5c-0.9-10.2-9.5-18.3-20-18.3c-3.3,0-6.3,0.8-9.1,2.2
		c-6.2-10.7-17.8-18-31.1-18c-13.1,0-24.5,7-30.8,17.5c-2.6-1.3-5.6-2.1-8.8-2.1c-9.9,0-18,7.4-19.3,16.9
		c-4.8,2.2-8.5,6.4-10.2,11.4c-6.5,0.4-10.2,0.8-10.2,1.2c0,1.5,43.2,2.7,96.5,2.7c53.3,0,96.5-1.2,96.5-2.7
		C1410,425.9,1391,425,1362.6,424.5z"/>
	<g>
		<path class="st11" d="M1259.2,838.4c0,0,15.7,61,0.6,96.8c-15.2,35.8,33.9,65.6,33.9,65.6l-90.5-37.6l44-114.2L1259.2,838.4z"/>
		<path class="st12" d="M989.2,1629c-74.3,54.1-24.8,109.2-6.9,111.8c17.9,2.6,44.3-3.7,75.1-50.9
			c30.8-47.2,148.5-111.7,148.5-111.7l-33.3-39L989.2,1629z"/>
		<path class="st13" d="M1501.7,1349.7c-40-52.5-288.6,71.5-288.6,71.5l-77.2,5.9l-76.1-14.1c0,0-233.7-149.9-279.1-102
			c-45.4,47.9-38.6,158.2,41.9,212.9c80.5,54.7,231.1,120,272.2,110.8c9-2,19.8-12.3,31.3-27.1c9.8,16,19.4,27.4,28.1,30.3
			c39.9,13.6,196.7-35.2,282.7-81C1522.9,1511.1,1541.6,1402.2,1501.7,1349.7z"/>
		<g>
			<path class="st0" d="M1065.3,1658c0,0,44.1,50.2,50.7,67.9c3.6,9.6,10,35.1,15.1,56.5c5.7,23.7,32.2,36.1,53.8,24.6
				c8-4.3,15.1-10.6,19.2-19.8c14.2-32.4-7.8-67.3-8.3-88.5c-0.5-21.2,3.2-40.1-13.5-62.1c-16.8-22.1-48.2-13.5-64-32.3
				c-3.1-3.7-6.6-7-10.2-10c-15.3-12.5-37.8-10.7-51.2,3.9h0c-13.4,14.6-13.2,37.2,0.5,51.5L1065.3,1658z"/>
		</g>
		<g class="st5">
			<defs>
				<path id="SVGID_1_" class="st5" d="M1501.7,1349.7c-40-52.5-288.6,71.5-288.6,71.5l-77.2,5.9l-76.1-14.1
					c0,0-233.7-149.9-279.1-102c-45.4,47.9-38.6,158.2,41.9,212.9c80.5,54.7,231.1,120,272.2,110.8c9-2,19.8-12.3,31.3-27.1
					c9.8,16,19.4,27.4,28.1,30.3c39.9,13.6,196.7-35.2,282.7-81C1522.9,1511.1,1541.6,1402.2,1501.7,1349.7z"/>
			</defs>
			<clipPath id="SVGID_2_">
				<use xlink:href="#SVGID_1_"  style="overflow:visible;"/>
			</clipPath>
			<path class="st14" d="M743.6,1485.1c0,0,17.5-140.4,84.1-137.2c66.6,3.2,201.8,131.3,201.8,131.3l72.2,87.8l55.2-29.8l156.4-89.6
				c0,0,27.5-70.6,102.1-88.6c74.7-18,110.5,8.9,99.1,70.1c-11.4,61.2,25.4,77.7,33.3,24.8c7.9-52.9,42.7-134.3-61.4-133.5
				s-257.7,125.3-334.7,116.5c-76.9-8.8-177.6-58.1-184.6-89.1c-7-30.9-166.4-75.7-189.2-52C755,1319.6,723.5,1426.4,743.6,1485.1z"
				/>
		</g>
		<path class="st13" d="M889.7,1382.7c0,0,115.3,84.6,154.9,123.7c39.5,39.1,80,89.5,80,89.5s-12.5,20-27.3,38.4
			c-11,13.6-23.2,26.4-32.7,29.5c-22.3,7.3-262.9-139.6-274.5-201C778.5,1401.4,889.7,1382.7,889.7,1382.7z"/>
		<g>
			<g>
				<path class="st0" d="M1103.8,1571l-2.1-4c1.5-0.8,154.5-82.2,187.6-106.8c33.4-24.7,95.4-57,96-57.3l2.1,4
					c-0.6,0.3-62.3,32.4-95.4,56.9C1258.6,1488.6,1110.1,1567.6,1103.8,1571z"/>
			</g>
			<g>
				<path class="st0" d="M1313.2,1447.6l-4.3-1.2c6.2-22.2,40.2-48.2,41.6-49.3l2.7,3.6C1352.8,1400.9,1318.9,1426.8,1313.2,1447.6z
					"/>
			</g>
		</g>
		<g>
			<g>
				<path class="st0" d="M1118.7,1600c-116.5-162.1-146.7-174-227.4-206.1l1.7-4.2c79.3,31.5,112.2,44.5,229.4,207.6L1118.7,1600z"
					/>
			</g>
			<g>
				<path class="st0" d="M968.5,1429.1c-6.7-15.7-31.4-45.3-31.7-45.6l3.5-2.9c1,1.2,25.4,30.4,32.4,46.8L968.5,1429.1z"/>
			</g>
		</g>
		<path class="st15" d="M981.9,1311.6l-57.5,28c0,0-7.6-59.5-12.4-96.6c-4.8-37.1-27.4-223,55.1-250.3
			c82.5-27.3,255.9-56.2,302.3-25.6s89.5,44.6,119.2,154.7l-1.1,138.1l-71.3,98.4c0,0-28.2,61.7-18.4,74.3c0,0-38.1,35.4-83.4,14.7
			s-170.6,35.7-225.2-32.1C934.5,1347.6,981.9,1311.6,981.9,1311.6z"/>
		<g>
			<path class="st0" d="M1271.1,1238.7c14.5-1.2,28.9-2.4,43.3-4.6c7.3-1.2,14.5-2.6,21.7-4.5c3.6-0.9,7.1-2,10.6-3.2
				c1.7-0.6,3.5-1.2,5.2-1.9c0.8-0.3,2.2-1.4,2.6-1.4c1.7-0.3,4.4,0.8,6,1.1c3.7,0.7,7.4,1.4,11.1,2.1c5.2,1,10.4,2,15.6,2.9
				c2.8,0.5,3.9-3.7,1.2-4.2c-5.2-1-10.4-2-15.6-2.9c-5.5-1-11.6-3.1-17.2-3.2c-2.2,0-4.3,1.2-6.4,2c-3.5,1.3-7,2.4-10.5,3.4
				c-7.1,2.1-14.3,3.7-21.6,4.9c-15.2,2.7-30.6,3.9-46,5.1C1268.3,1234.6,1268.2,1239,1271.1,1238.7L1271.1,1238.7z"/>
		</g>
		<path class="st0" d="M1112.4,970.6c-2.1-0.1-32.1,6.4-31.3,23.9c0.8,17.5,52.5,80.4,68.1,76.4c15.6-3.9,25.7-40.5,25.7-40.5
			s32.1,35.3,49.8,23.6c17.7-11.7-11.2-72.6-43.7-79.4C1148.4,968,1112.4,970.6,1112.4,970.6z"/>
		<path class="st11" d="M1270.4,1288c-1.2-5.4-2-10.9-2.5-16.4c-0.6-5.5-0.7-11.1-0.8-16.6c-0.1-11.1,0.8-22.2,2.6-33.2
			c1.7-11,4.3-21.9,7.9-32.4l1.3-4c0.5-1.3,1-2.6,1.5-3.9l3.1-7.8c2.2-5.1,4.3-10.1,6.4-15.2c4.3-10.1,8.4-20.4,12.4-30.6
			c2-5.1,4-10.3,5.9-15.4c1.9-5.2,3.8-10.3,5.6-15.5c1.8-5.2,3.5-10.4,5.2-15.6c1.7-5.2,3.2-10.5,4.6-15.8
			c1.4-5.3,2.6-10.7,3.4-16.1c0.4-2.7,0.7-5.4,0.7-8.2c0.1-2.7-0.1-5.5-1.1-8.1c1.2,2.5,1.6,5.3,1.7,8.1c0.1,2.8,0.1,5.6-0.2,8.3
			c-0.5,5.5-1.4,11-2.5,16.4c-2.3,10.8-5.4,21.5-8.7,32.1c-3.3,10.6-7.1,21-10.9,31.3c-3.9,10.3-8,20.6-12.2,30.8
			c-2.1,5.1-4.3,10.2-6.5,15.2l-3,7.6c-0.5,1.3-1,2.5-1.5,3.8l-1.3,3.9l-1.3,3.9c-0.4,1.3-0.9,2.6-1.3,3.9l-2.2,7.9
			c-0.4,1.3-0.7,2.6-1,4l-0.9,4c-0.3,1.3-0.6,2.7-0.9,4l-0.8,4c-2,10.8-3.3,21.7-3.8,32.6c-0.2,5.5-0.3,11-0.1,16.5
			c0,1.4,0.1,2.8,0.2,4.1c0.1,1.4,0.1,2.8,0.3,4.1C1269.8,1282.6,1270,1285.3,1270.4,1288z"/>
		<path class="st16" d="M1186.6,1013.7c0,0-16.2,27.7-48,21.5c-31.8-6.2-38.1-17.3-36.4-28.5c1.8-11.3,20.2-31.7,20.2-31.7
			S1165,1012.5,1186.6,1013.7z"/>
		<path class="st17" d="M1174.4,1010.4c0,0-30.8,16-50.1-8.5c-19.3-24.5-6.5-47.2-6.5-47.2L1174.4,1010.4z"/>
		<path class="st16" d="M1229,805.2c0,0,34.6,60.3,15.2,109.6c-19.4,49.3-26.8,59.5-32.4,75.8c-5.6,16.3-17.8,30.4-42.2,18.5
			c-24.4-11.9-55.8-41.2-55.8-41.2s-27.8-8.5-11.9-89.8C1117.8,796.8,1229,805.2,1229,805.2z"/>
		<g>
			<g>
				<path class="st18" d="M1251,883.2c-0.7,0.6-1.6,0.9-2.5,0.7c-10.5-2.3-17.7,6.4-17.8,6.5c-1,1.3-2.8,1.4-4.1,0.4
					c-1.2-1-1.4-2.8-0.4-4.1c0.4-0.5,9.5-11.6,23.5-8.6c1.6,0.3,2.6,1.9,2.2,3.4C1251.8,882.3,1251.4,882.9,1251,883.2z"/>
			</g>
			<g>
				<path class="st18" d="M1182,898.1c-1,0.3-2.2,0.1-3.1-0.7c-10.1-8.2-22.6-2.6-22.7-2.6c-1.8,0.8-3.8,0-4.6-1.7
					c-0.8-1.8,0-3.8,1.7-4.6c0.7-0.3,16.5-7.4,30,3.5c1.5,1.2,1.7,3.4,0.5,4.9C1183.3,897.5,1182.6,897.9,1182,898.1z"/>
			</g>
			<g>
				<g>
					<g>
						<g>
							<g>
								<g>
									<g>
										<g>
											<path class="st0" d="M1199.4,969.1c0,0-0.6,0-1.6,0.1c-1,0.1-2.5,0.1-4.2,0c-3.4-0.1-7.8-0.8-12.3-2.1
												c-4.4-1.3-8.5-3.1-11.6-4.9c-1.5-0.9-2.8-1.7-3.6-2.3c-0.9-0.6-1.4-1-1.4-1s0.1,0.5,0.3,1.4c0.3,0.9,0.8,2.2,1.8,3.8
												c2,3.1,6.4,7.2,12.9,9.1c6.5,1.9,12.2,0.7,15.3-0.9c1.6-0.8,2.6-1.6,3.3-2.3C1199.2,969.4,1199.4,969.1,1199.4,969.1z"/>
										</g>
									</g>
								</g>
							</g>
						</g>
					</g>
				</g>
			</g>
			<path class="st18" d="M1212.1,904.1c1,3.8,1.8,7.5,2.6,11.3c0.8,3.8,1.4,7.6,2,11.4c1.2,7.6,2.2,15.3,3,22.9l0.1,1.1l-0.8,0.7
				c-0.7,0.6-1.2,1-1.8,1.4c-0.6,0.4-1.2,0.8-1.8,1.2c-1.3,0.7-2.6,1.4-3.9,1.9c-2.7,1.1-5.6,1.8-8.5,1.8c-2.9,0-5.9-0.6-8.4-1.8
				c-2.6-1.2-4.8-3-6.6-5c2.3,1.5,4.8,2.6,7.3,3.3c1.3,0.3,2.5,0.5,3.8,0.6c1.3,0.1,2.5,0,3.8-0.2c2.5-0.3,4.9-1.1,7.2-2.2
				c1.1-0.6,2.2-1.2,3.3-1.9c0.5-0.4,1-0.7,1.5-1.1c0.5-0.4,1-0.8,1.4-1.1l-0.7,1.8c-1-7.6-1.9-15.3-2.5-23
				c-0.3-3.8-0.5-7.7-0.7-11.6C1212.2,911.8,1212,908,1212.1,904.1z"/>
			<circle class="st18" cx="1236" cy="911.3" r="4.5"/>
			<circle class="st18" cx="1179.3" cy="916.6" r="5.8"/>
			<path class="st18" d="M1171.1,909.2c0.5,1,1.1,1.9,1.7,2.7c0.7,0.8,1.4,1.4,2.3,2c0.8,0.6,1.7,1.1,2.7,1.5c1,0.5,2,0.9,3,1.4
				c-1.1,0.2-2.3,0.1-3.4-0.1c-1.1-0.2-2.2-0.7-3.2-1.4c-1-0.7-1.8-1.6-2.4-2.7C1171.1,911.6,1170.8,910.4,1171.1,909.2z"/>
			<path class="st18" d="M1235.2,910.2c0.9-0.3,1.6-0.6,2.3-1c0.7-0.4,1.3-0.9,1.8-1.4c0.6-0.5,1.1-1.1,1.6-1.7
				c0.5-0.6,1.1-1.3,1.7-2c0,0.9-0.2,1.8-0.5,2.7c-0.4,0.8-0.9,1.7-1.6,2.3c-0.7,0.7-1.6,1.2-2.5,1.4
				C1237,910.7,1236,910.7,1235.2,910.2z"/>
		</g>
		<g>
			<path class="st16" d="M1402.6,1232.4l-1.7-1.9l1.9-1.3l26.9,7.2C1429.5,1236.4,1414.5,1236,1402.6,1232.4z"/>
			<path class="st17" d="M1402.6,1232.4l-1.7-1.9l1.9-1.3l26.9,7.2C1429.5,1236.4,1414.5,1236,1402.6,1232.4z"/>
		</g>
		<g>
			<path class="st19" d="M1189.5,1106.3c0,0,8.1-28,36.9-21.3l16.2,3.5l-4.2,15.8L1189.5,1106.3z"/>
			<polygon class="st20" points="1447.3,1135.3 1242.6,1088.5 1238.4,1104.3 1444.6,1147 			"/>
			<path class="st10" d="M1217.3,1187.9l24.1-95.5l-8.2-1.9c-20.7-4.8-40.4,2.8-44,17l-11.1,44.2c-3.6,14.2,10.3,29.6,31.1,34.3
				L1217.3,1187.9z"/>
			<polygon class="st21" points="1217.3,1187.9 1241.4,1092.4 1446.5,1139.8 1422.4,1235.4 			"/>
			<path class="st22" d="M1485.7,1176.1c0,0,6.1-28.5-22.4-36.2l-15.9-4.6l-3.8,15.9L1485.7,1176.1z"/>
			<path class="st8" d="M1474.6,1220.2l11.1-44.2c3.6-14.2-10.3-29.6-31.1-34.3l-8.2-1.9l-24.1,95.5l8.2,1.9
				C1451.3,1242,1471,1234.4,1474.6,1220.2z"/>
		</g>
		<path class="st16" d="M1415.3,1293.7c0,0-46.5,91.6-115.5,91.1c0,0-22.8-8.9-25.2-42.4c-2.4-33.5-4.1-54.4-4.1-54.4l59.3-11.1
			c0,0,37.3-10.7,56.7-30.1L1415.3,1293.7z"/>
		<g>
			<defs>
				<path id="SVGID_3_" d="M1415.3,1293.7c0,0-46.5,91.6-115.5,91.1c0,0-22.8-8.9-25.2-42.4c-2.4-33.5-4.1-54.4-4.1-54.4l59.3-11.1
					c0,0,37.3-10.7,56.7-30.1L1415.3,1293.7z"/>
			</defs>
			<clipPath id="SVGID_4_">
				<use xlink:href="#SVGID_3_"  style="overflow:visible;"/>
			</clipPath>
			<path class="st23" d="M1384.1,1249.1c0,0-5.4,79.7-17,87.3c-11.6,7.5-61.6,49.8-77.3,24.2s-13.7-64.8-13.7-64.8l52.8-22.2
				l-71.2,16l23.6,93.9l28.5,11.8l75.5-43.7l33.6-60.4L1384.1,1249.1z"/>
		</g>
		<path class="st16" d="M1158.2,1133.6c0,0,15.4-29.8,27.7-24c12.3,5.7,52.3,19.1,49.2,25.9s-18.2,6.5-18.2,6.5s16,12.9,17.1,15.2
			c1.1,2.2,10.9,18.6,10,21.8c-0.8,3.2-9,9.4-13.6,2c-4.6-7.4-6.9-7.1-5.4-3.1c1.4,4.1,1.4,11-2.9,12.8c-4.4,1.8-1.3,0.9-6.1,6.2
			c-4.8,5.3-21.5,10.5-21.5,10.5s-1.9,16.8-7.4,20.6s-12.9,1-21.3,14.4s-60.5,123.6-117.6,123.8s-66.1-54.6-66.1-54.6l65.2-56.9
			c0,0,14.1,18.4,100.1-65.7c0,0-4.7-30.8,2.1-38S1158.2,1133.6,1158.2,1133.6z"/>
		<path class="st16" d="M1501.1,1219.7c0,0,9.8-15.9,4.4-22.4c-5.4-6.4-62.1-18.1-65.4-6.5s6.8,12.9,6.8,12.9s-6.7,9-4.7,13.8
			s-8.1,3.8-6,13.8c2.1,10-33.2,0.9-33.2,0.9s-10.6,23.7,11.7,36.1s55.3,16.2,56.9,5.8c1.6-10.4,8.3-8,11.1-13.5
			c2.9-5.5,1.5-11.3,8.7-16.1C1498.5,1239.7,1504,1233.2,1501.1,1219.7z"/>
		<path class="st24" d="M1439.3,1277.8c0,0-5.2,13.2-14.1,15c-8.8,1.8-34.3,1.8-36.7-10.7s-5.8-45.8-5.8-45.8s13.8-13.4,20.2-4.1
			C1402.9,1232.2,1387.1,1266.4,1439.3,1277.8z"/>
		<path class="st11" d="M1328.1,1277.3c-24.8,9-40.5,37.2-40.5,37.2"/>
		<path class="st11" d="M1493.5,1217.6c-1-1-2-2-2.9-3.1c-0.5-0.5-0.9-1.1-1.3-1.6l-0.3-0.4c-0.1-0.1-0.2-0.1-0.3-0.2
			c-0.3-0.1-0.5-0.3-0.8-0.4c-1.2-0.5-2.5-0.8-3.9-1.1c-1.3-0.3-2.7-0.6-4.1-0.8c-2.7-0.5-5.5-0.9-8.2-1.3c-2.7-0.4-5.5-0.8-8.3-1.2
			l-16.5-2.4c-0.9-0.1-1.5-0.4-2.3-0.7c-0.7-0.3-1.4-0.7-2-1.2c-1.2-1-2.2-2.2-2.8-3.6c-1.1-2.8-0.8-5.8,0-8.5
			c-0.3,2.8-0.1,5.6,1.1,7.9c0.6,1.1,1.5,2.1,2.6,2.7c0.5,0.3,1.1,0.6,1.7,0.8c0.6,0.2,1.2,0.4,1.8,0.4c2.8,0.2,5.6,0.5,8.4,0.8
			c2.8,0.3,5.6,0.7,8.3,1.1c5.5,0.8,11.1,1.8,16.5,3.2c2.7,0.7,5.5,1.4,8.1,2.8c0.3,0.2,0.7,0.4,1,0.7c0.2,0.2,0.3,0.4,0.4,0.5
			l0.3,0.4l1.1,1.8C1491.9,1215.2,1492.7,1216.4,1493.5,1217.6z"/>
		<path class="st11" d="M1483.9,1245.8c-1.5-1.6-3-3.2-4.3-4.9c-1.3-1.7-2.6-3.5-3.6-5.5c-0.3-0.5-0.5-1-0.7-1.5
			c-0.1-0.2-0.1-0.2-0.1-0.3c-0.1-0.1,0-0.1-0.1-0.2c-0.2-0.1-0.3-0.3-0.5-0.4c-0.7-0.6-1.6-1.1-2.5-1.6c-1.9-0.9-3.9-1.7-5.9-2.4
			c-4-1.5-8.2-2.7-12.3-3.9c-4.1-1.2-8.3-2.4-12.5-3.5l-0.3-1.9c-0.1,0,0,0,0,0c0,0,0.1-0.1,0.1-0.1c0.1-0.1,0.1-0.1,0.1-0.2
			c0.1-0.2,0.1-0.4,0.1-0.6c0-0.1,0-0.3-0.1-0.4l-0.2-0.5c-0.1-0.4-0.2-0.9-0.3-1.3c-0.1-1.8,0.3-3.4,0.9-4.8
			c0.6-1.5,1.4-2.8,2.2-4.1c0.8-1.3,1.8-2.5,2.8-3.7c-0.7,1.3-1.5,2.7-2.1,4.1c-0.6,1.4-1.2,2.8-1.6,4.2c-0.4,1.4-0.7,2.9-0.4,4.1
			c0.1,0.3,0.1,0.6,0.3,0.9l0.2,0.6c0.1,0.2,0.1,0.5,0.2,0.7c0.2,1,0,2.3-1.2,3.1l-0.3-1.9c4.3,0.9,8.5,1.9,12.7,3.1
			c4.2,1.2,8.4,2.5,12.5,4.1c2,0.8,4.1,1.7,6,2.8c1,0.6,1.9,1.2,2.8,2c0.2,0.2,0.4,0.5,0.6,0.7c0.2,0.3,0.4,0.7,0.5,1
			c0.2,0.5,0.3,1,0.5,1.5C1479.2,1238.5,1481.6,1242.2,1483.9,1245.8z"/>
		<path class="st11" d="M1468.4,1265.1c-1.1-3.7-3-7.2-5.4-10.1c-2.4-2.9-5.4-5.4-8.7-7.1c-1.6-0.8-3.5-1.6-5.3-2.5
			c-1.8-0.9-3.5-1.9-5.2-2.9c-1.7-1.1-3.3-2.3-4.8-3.6c-0.8-0.6-1.5-1.3-2.2-2.1c-0.4-0.4-0.7-0.7-1-1.1c-0.4-0.4-0.6-0.8-1-1.3
			l2.3-0.1c-0.7,1.5-1.2,3.3-1.6,5c-0.4,1.7-0.5,3.5-0.6,5.2c0,3.5,0.9,7,2.6,10c0.4,0.8,1,1.5,1.5,2.2c0.5,0.7,1.2,1.3,1.7,2
			c1.2,1.3,2.6,2.7,3.8,4.1c1.2,1.4,2.4,2.8,3.5,4.4c0.5,0.8,1,1.6,1.5,2.4c0.2,0.4,0.4,0.9,0.5,1.3c0.1,0.4,0.3,1-0.1,1.4
			c0.2-0.4,0-0.9-0.1-1.3c-0.2-0.4-0.4-0.8-0.7-1.2c-0.5-0.8-1.1-1.5-1.7-2.1c-1.2-1.4-2.5-2.7-3.9-3.9l-2-1.9
			c-0.7-0.6-1.4-1.2-2.1-1.9c-0.7-0.7-1.4-1.3-2-2.1c-0.6-0.8-1.2-1.5-1.7-2.3c-2.1-3.3-3.2-7.2-3.3-11.1c0-1.9,0.2-3.9,0.5-5.8
			c0.4-1.9,0.9-3.7,1.7-5.6l1-2.1l1.3,2c0.2,0.3,0.5,0.7,0.8,1c0.3,0.3,0.6,0.7,0.9,1c0.7,0.7,1.3,1.3,2,1.9c1.4,1.2,3,2.4,4.5,3.4
			c1.6,1,3.2,2.1,4.9,3c0.8,0.5,1.7,0.9,2.6,1.3c0.8,0.4,1.8,0.9,2.6,1.4c0.4,0.2,0.9,0.5,1.3,0.8l1.2,0.9c0.8,0.6,1.6,1.2,2.3,1.9
			c1.5,1.4,2.8,2.9,3.9,4.5C1466.2,1257.5,1467.8,1261.2,1468.4,1265.1z"/>
		<path class="st11" d="M1216.8,1141.9c-3.6-0.3-7.1-0.8-10.6-1.4c-3.5-0.6-7-1.2-10.4-1.9c-3.5-0.7-6.9-1.4-10.4-2.1
			c-1.7-0.3-3.4-0.7-5.2-1c-0.9-0.2-1.7-0.3-2.6-0.4c-0.9-0.1-1.7-0.2-2.6,0c0.8-0.5,1.7-0.6,2.6-0.7c0.9-0.1,1.8-0.1,2.7-0.2
			c1.8,0,3.6,0.1,5.4,0.3c3.6,0.3,7.1,0.9,10.6,1.6c1.7,0.4,3.5,0.7,5.2,1.1c1.7,0.4,3.4,0.8,5.2,1.3
			C1210.1,1139.5,1213.5,1140.6,1216.8,1141.9z"/>
		<path class="st11" d="M1225.7,1175.2c-2.5-3.5-5.5-6.5-8.9-8.8c-0.8-0.6-1.8-1.1-2.6-1.6l-1.4-0.7c-0.5-0.2-0.9-0.4-1.4-0.6
			c-0.5-0.2-0.9-0.4-1.4-0.6l-1.5-0.5c-1-0.3-2-0.5-3-0.7c-2-0.4-4.2-0.8-6.2-1.1c-2.1-0.4-4.2-0.7-6.3-1c-4.2-0.6-8.4-1.2-12.7-1.7
			c4.3-0.6,8.6-0.6,12.9-0.3c4.3,0.3,8.6,0.8,12.8,1.6c4.3,0.9,8.6,2.7,12,5.6C1221.4,1167.6,1224.2,1171.2,1225.7,1175.2z"/>
		<path class="st11" d="M1219.6,1191.9c-1.4-1.3-2.8-2.6-4.2-3.7c-0.7-0.6-1.4-1.2-2.2-1.7c-0.7-0.5-1.5-1-2.2-1.1
			c-0.2,0-0.3-0.1-0.4,0c-0.1,0-0.1,0-0.1,0l-0.4,0.1c-0.3,0-0.6,0.1-0.9,0.1l-0.7,0c-1,0-1.9,0-2.9-0.1c-1.9-0.1-3.8-0.3-5.7-0.5
			c-3.8-0.4-7.5-1-11.2-1.7c-3.7-0.7-7.4-1.5-11.1-2.6c3.8,0,7.6,0.2,11.3,0.5c3.8,0.3,7.5,0.7,11.2,1.1c1.9,0.2,3.7,0.4,5.6,0.6
			c0.9,0.1,1.9,0.2,2.7,0.2l0.7,0c0.2,0,0.3,0,0.5,0l0.1,0c0,0,0,0,0.1,0l0.2,0c0.2,0,0.4,0,0.6,0c0.4,0,0.7,0.1,1,0.2
			c1.1,0.4,1.9,1.1,2.6,1.7c0.7,0.7,1.4,1.4,2,2.1C1217.5,1188.8,1218.6,1190.3,1219.6,1191.9z"/>
		<path class="st11" d="M1194.5,1207.4c-1.8,0.6-3.7,0.9-5.5,1.1c-1.8,0.2-3.7,0.3-5.5,0.4c-1.8,0-3.7,0-5.5-0.2
			c-1.8-0.2-3.7-0.4-5.6-0.9c1.8-0.6,3.7-0.9,5.5-1.1c1.8-0.2,3.7-0.3,5.5-0.4c1.8,0,3.7,0,5.5,0.2
			C1190.8,1206.6,1192.6,1206.9,1194.5,1207.4z"/>
		<path class="st11" d="M1155.7,1187.6c0.3,2.1,0.7,4,1.2,6c0.5,1.9,1.1,3.8,1.9,5.5c0.8,1.8,1.6,3.5,2.7,5.2
			c0.5,0.9,1.1,1.7,1.6,2.5c0.5,0.9,1.2,1.7,1.7,2.6c-0.9-0.5-1.8-1.1-2.7-1.7c-0.8-0.7-1.6-1.4-2.3-2.2c-1.5-1.6-2.6-3.5-3.4-5.4
			c-0.9-2-1.4-4.1-1.5-6.2C1154.8,1191.7,1154.9,1189.5,1155.7,1187.6z"/>
		<g>
			<path class="st0" d="M1046.3,1229.3c-15.1,2-30.4,3.7-45.4,6.2c-13.5,2.2-26.9,5.9-38.4,13.6c-7.7,5.2-13.1,12.1-18.3,19.7
				c-6.8,9.8-14.8,17.1-25.3,22.7c-2.5,1.3-0.3,5.1,2.2,3.8c9.6-5.1,17.7-11.7,24.2-20.4c5.4-7.3,9.9-14.8,17.2-20.4
				c11-8.3,24.6-12.2,38-14.5c15.2-2.6,30.6-4.2,45.8-6.3C1049,1233.3,1049.1,1228.9,1046.3,1229.3L1046.3,1229.3z"/>
		</g>
		<g>
			<defs>
				<path id="SVGID_5_" d="M1158.1,1133.6c0,0,15.4-29.8,27.7-24c12.3,5.7,52.3,19.1,49.2,25.9c-3.1,6.8-18.2,6.5-18.2,6.5
					s16,12.9,17.1,15.2s10.9,18.6,10,21.8c-0.8,3.2-9,9.4-13.6,2c-4.6-7.4-6.9-7.1-5.4-3.1c1.4,4.1,1.4,11-2.9,12.8
					c-4.4,1.8-1.3,0.9-6.1,6.2s-21.5,10.5-21.5,10.5s-1.9,16.8-7.4,20.6s-12.9,1-21.3,14.4c-8.4,13.3-60.5,123.6-117.6,123.8
					c-57.1,0.1-66.1-54.6-66.1-54.6l65.2-56.9c0,0,14.1,18.4,100.1-65.7c0,0-4.7-30.8,2.1-38
					C1156.1,1143.9,1158.1,1133.6,1158.1,1133.6z"/>
			</defs>
			<clipPath id="SVGID_6_">
				<use xlink:href="#SVGID_5_"  style="overflow:visible;"/>
			</clipPath>
			<path class="st25" d="M1150.4,1134.2c0,0-4.1,55.1,10.8,71.5c14.9,16.5,25-3.3,28.9,8.6c3.9,11.9,5.1,27-3.6,25.9
				s-103.4,139.6-113.1,135.9s-44.9,2.8-54.4-9.1c0,0-41.8-31.4-43-41.7c-1.3-10.4,0.9-18.6,0.9-18.6l14.6-7.6
				c0,0,35.4,68.5,66.3,53.4c30.9-15.1,111-127.4,111-127.4s-14-6.9-19.9-22c-6-15.1-4.8-54.7-4.8-54.7L1150.4,1134.2z"/>
		</g>
		<path class="st26" d="M988.8,1331l-64.4,8.6l57.5-28C981.9,1311.6,982.8,1321.3,988.8,1331z"/>
		<path class="st11" d="M1233.6,1183.9c1.2,0.4,2.5,0.5,3.6,0.2c1.2-0.3,2.2-0.9,3.1-1.6c0.9-0.8,1.7-1.7,2.3-2.7
			c0.3-0.5,0.6-1.1,0.5-1.3c-0.1-0.5-0.2-1.1-0.4-1.7c-0.7-2.3-1.6-4.6-2.6-6.9c-1-2.2-2.1-4.4-3.3-6.5c-1.3-2.1-2.6-4.1-4.2-5.8
			c-1.7-1.8-3.4-3.5-5.3-5.2c-3.7-3.3-7.4-6.6-11.3-9.7l0.4,0.2c-3.7-0.9-7.5-1.9-11.2-2.8c-3.7-1-7.4-2-11.1-3.1
			c3.8,0.5,7.6,1.1,11.4,1.8c3.8,0.6,7.6,1.4,11.4,2.1l0.2,0l0.2,0.2c4,3,7.9,6.1,11.7,9.5c1.9,1.7,3.7,3.4,5.4,5.3
			c1.8,1.9,3.2,4.1,4.4,6.4c2.4,4.5,4.3,9.2,5.5,14.2c0.1,0.6,0.2,1.3,0.3,2c0,0.2,0,0.5-0.1,0.7c-0.1,0.2-0.1,0.4-0.2,0.5
			c-0.2,0.3-0.3,0.6-0.5,0.9c-0.8,1.1-1.7,2-2.8,2.7c-1.1,0.7-2.3,1.2-3.6,1.4C1236,1184.8,1234.7,1184.5,1233.6,1183.9z"/>
		<path class="st11" d="M1218.2,1166.2c2.3,1.4,4.4,3.1,6.3,5.1c0.9,1,1.8,2.1,2.4,3.6c0.5,1.5,0.6,2.9,0.7,4.3
			c0.1,2.8-0.3,5.6-1.5,8.2c-0.6,1.3-1.4,2.5-2.6,3.4c-0.6,0.4-1.2,0.8-1.9,1c-0.7,0.2-1.4,0.2-2.1,0.2c1.3-0.4,2.4-1.1,3.1-2.1
			c0.4-0.5,0.7-1,0.9-1.5c0.2-0.5,0.5-1.1,0.6-1.7c0.6-2.4,0.8-4.9,0.8-7.4c0-1.2-0.2-2.5-0.4-3.5c-0.3-1-1-2.1-1.7-3.1
			C1221.4,1170.4,1219.7,1168.4,1218.2,1166.2z"/>
		<path class="st11" d="M1441.6,1220.5l-2,2.7c-0.6,0.9-1.2,1.7-1.7,2.5c-0.5,0.8-0.8,1.7-1,2.6c-0.2,0.9-0.2,1.8-0.1,2.8l0,0.1
			c0,0.3,0,0.5-0.1,0.7c0,0.2-0.1,0.5-0.2,0.7c-0.2,0.4-0.4,0.9-0.9,1.1c0.1-0.4,0.1-0.8,0-1.2c0-0.2-0.1-0.4-0.2-0.5
			c-0.1-0.2-0.1-0.4-0.2-0.5l0,0.1c-0.6-1.1-1-2.4-0.9-3.7c0.1-1.3,0.6-2.6,1.3-3.6c0.7-1,1.6-1.9,2.6-2.5
			C1439.4,1221.2,1440.4,1220.7,1441.6,1220.5z"/>
		<path class="st11" d="M1313.5,1280c-3.5,0.9-7.1,1.7-10.7,2.6c-3.6,0.8-7.1,1.6-10.7,2.4c-3.6,0.7-7.1,1.5-10.7,2.2
			c-3.6,0.7-7.2,1.5-10.7,2.1l1-1.4c0.4,5,0.8,10,1.2,15c0.4,5,0.7,10,1,15c0.6,10,1.1,20,1.2,30c-1.4-9.9-2.5-19.9-3.5-29.8
			c-0.5-5-0.9-10-1.3-14.9c-0.4-5-0.8-10-1.2-15l-0.1-1.1l1.1-0.2c3.6-0.7,7.2-1.3,10.8-1.9c3.6-0.6,7.2-1.2,10.8-1.8
			c3.6-0.6,7.2-1.1,10.8-1.6C1306.2,1280.9,1309.8,1280.5,1313.5,1280z"/>
		<path class="st11" d="M1357.6,1044.2c-4.1-4.7-8.1-9.5-12.1-14.1c-4-4.7-8.2-9.2-12.3-13.7c-4.2-4.5-8.5-8.8-12.9-13.1
			c-1.1-1-2.2-2.1-3.3-3.2c-1.1-1.1-2.3-2.1-3.4-3.1l-1.7-1.6c-0.6-0.5-1.2-1-1.8-1.5c-1.2-1-2.4-2-3.5-3.1c1.4,0.7,2.8,1.4,4.2,2.1
			c0.7,0.4,1.4,0.7,2.1,1.1l2,1.2c1.3,0.9,2.7,1.7,3.9,2.6c1.3,0.9,2.5,1.9,3.8,2.8c4.9,3.9,9.6,8.1,13.9,12.7
			c4.3,4.6,8.3,9.5,11.9,14.6C1351.8,1033.1,1355.1,1038.5,1357.6,1044.2z"/>
		<path class="st11" d="M1231.6,1130.2c-1.7-1.4-3.6-2.4-5.5-3.5c-1.9-1-3.9-2-5.8-2.9c-3.9-1.8-7.9-3.5-12-5.2
			c-8.1-3.3-16.2-6.3-24.4-9.2l0.1,0c-1.5-0.2-3,0.1-4.4,0.6c-1.4,0.5-2.7,1.3-4,2.2c-2.5,1.8-4.7,4-6.7,6.4c-2,2.4-3.8,4.9-5.6,7.4
			c-1.7,2.6-3.3,5.2-4.8,8l0.1-0.2c-0.4,1.6-0.8,3.2-1.4,4.8c-0.5,1.6-1.2,3.1-1.9,4.6c-0.7,1.5-1.6,3-2.5,4.4
			c-0.9,1.4-1.9,2.7-3.1,4l0.1-0.1c-1.7,2.6-2.5,5.7-3,8.8c-0.5,3.1-0.7,6.3-0.6,9.5c0,3.2,0.2,6.4,0.5,9.6c0.3,3.2,0.7,6.4,1.3,9.5
			l0.1,0.4l-0.3,0.3c-1.7,2-3.6,3.8-5.4,5.6c-1.9,1.8-3.7,3.6-5.6,5.3c-3.8,3.5-7.6,6.9-11.5,10.3c-7.7,6.8-15.6,13.4-23.7,19.8
			c-4,3.2-8.1,6.3-12.3,9.4c-4.2,3-8.4,6-12.9,8.7c-4.5,2.7-9.1,5-14.1,6.7c-2.5,0.8-5.1,1.5-7.8,1.8c-1.3,0.1-2.7,0.1-4.1,0
			c-0.7-0.1-1.4-0.2-2.1-0.5c-0.3-0.1-0.7-0.3-1-0.4c-0.2-0.1-0.3-0.2-0.5-0.3c-0.2-0.1-0.3-0.2-0.6-0.4l1.6,0l-32.6,28.5
			l-32.6,28.4l-0.1,0.1l-0.2,0.1l-57.6,28l-1.5,0.7l-0.2-1.7l-8-63.7l-3.9-31.9l-1-8l-0.5-4c-0.2-1.4-0.2-2.7-0.4-4
			c-0.4-5.3-0.8-10.7-1.1-16c-1.4-21.4-2.4-42.8-2.5-64.2c-0.1-10.7,0.1-21.4,0.6-32.1c0.3-5.3,0.7-10.7,1.3-16
			c0.6-5.3,1.4-10.6,2.7-15.8c-1.2,5.2-1.9,10.5-2.4,15.9c-0.5,5.3-0.8,10.7-1,16c-0.4,10.7-0.4,21.4-0.2,32.1
			c0.5,21.4,1.6,42.8,3.2,64.1c0.4,5.3,0.8,10.7,1.3,16c0.1,1.3,0.2,2.7,0.4,4l0.5,4l1.1,8l4.2,31.8l8.2,63.7l-1.7-0.9l57.5-28.1
			l-0.3,0.2l32.6-28.4l32.7-28.4l1.6,0c0,0,0.1,0.1,0.2,0.1c0.1,0.1,0.2,0.1,0.3,0.2c0.2,0.1,0.5,0.2,0.7,0.3
			c0.5,0.2,1.1,0.3,1.7,0.4c1.2,0.2,2.4,0.2,3.6,0c2.4-0.2,4.9-0.8,7.2-1.6c4.7-1.6,9.3-3.9,13.7-6.5c4.4-2.6,8.6-5.5,12.7-8.6
			c4.1-3,8.2-6.1,12.2-9.3c8-6.4,15.9-12.9,23.7-19.6c3.9-3.4,7.7-6.7,11.5-10.2c1.9-1.7,3.8-3.5,5.6-5.2c1.8-1.8,3.7-3.6,5.3-5.4
			l-0.2,0.8c-0.6-3.2-1-6.4-1.3-9.7c-0.3-3.2-0.5-6.5-0.4-9.7c0-3.3,0.2-6.5,0.7-9.8c0.6-3.2,1.4-6.5,3.3-9.4l0-0.1l0.1-0.1
			c1.1-1.1,2.1-2.4,3-3.7c0.9-1.3,1.7-2.8,2.4-4.2c0.7-1.5,1.4-2.9,1.9-4.5c0.6-1.5,1-3.1,1.4-4.7l0-0.1l0-0.1c1.5-2.8,3.2-5.4,5-8
			c1.8-2.6,3.7-5.1,5.7-7.5c2.1-2.4,4.3-4.6,6.9-6.4c1.3-0.9,2.7-1.7,4.2-2.2c1.5-0.5,3.2-0.8,4.8-0.6l0,0l0,0
			c8.2,3,16.3,6.2,24.3,9.6c4,1.7,8,3.5,11.9,5.4c2,1,3.9,2,5.8,3C1228.1,1127.7,1230,1128.8,1231.6,1130.2z"/>
		<path class="st11" d="M1232.2,791.7c23.9,8.2,36,67.8,20.9,68.3c-15.1,0.5-25.6-33.5-25.6-33.5s1.2,3-6.4,8.6
			c-7.6,5.6-17.7-11.6-17.7-11.6s-7.9,18.5-28.3,30.2c-20.4,11.7-20.4-7.2-20.4-7.2s-13,33.7-30.9,36.6s-21.4-34.3-10.9-63.2
			c10.5-28.9,42.1-40.8,65.9-42.8s32.3,6.2,33.4,6L1232.2,791.7z"/>
		<path class="st16" d="M1106.7,860.6c0,0-24-26.2-24.8,10.3s15.6,40,15.6,40L1106.7,860.6z"/>
		<path class="st11" d="M1242.6,799c0,0-24.4-71.8-135.6-62.8c-100.4,8.2-77.9,183.1-69.1,212.9c8.8,29.8,33.3,149.1,0.9,168.7
			c-32.4,19.6,56.1,81,78.8,19.2c22.8-61.8,4.8-162,4.8-162s-28.1-18.7-25-64.1c0,0-12.6-9-13.7-21.8c-1.1-12.7,0.1-38.2,6.5-34.2
			c6.4,4,19.4,11.2,16.8,28.4c-2.6,17.2,6.5,21.2,6.6,14.1c0.1-7,8.4-86.7,8.4-86.7L1242.6,799z"/>
		<path class="st11" d="M1062.4,1254.3c-3.8-3.8-7-8.1-10-12.6c-2.9-4.5-5.6-9.2-7.9-14.1c-4.7-9.8-8.1-20.1-10.3-30.7
			c-1.1-5.3-2-10.7-2.5-16c-0.2-1.3-0.3-2.7-0.3-4l-0.2-4c0-2.7-0.2-5.4-0.1-8.1c0.1-10.8,1.3-21.5,3.8-32
			c-0.7,10.7-0.9,21.3-0.4,31.9l0.1,2l0.2,2l0.3,4l0.4,3.9c0.1,1.3,0.3,2.6,0.5,3.9l0.5,3.9l0.6,3.9c0.2,1.3,0.4,2.6,0.7,3.9
			c0.3,1.3,0.5,2.6,0.8,3.9c2.2,10.3,5.2,20.4,9.2,30.3c2,4.9,4.2,9.7,6.6,14.4C1056.7,1245.3,1059.3,1249.9,1062.4,1254.3z"/>
		<path class="st11" d="M1037,1141.9c0,0-49.9-29.9-33.2-87.8c16.6-57.8,49.8-109.5,33.2-180.4
			C1020.4,802.8,1135,1099.2,1037,1141.9z"/>
		<path class="st11" d="M1113.6,897.4l-1.8,26.3c0,0-6.7,3.3-7-7.8c-0.3-11.1,2.3-48.5,2.3-48.5L1113.6,897.4z"/>
	</g>
	<g>
		<g>
			<path class="st0" d="M2050.4,1678.2c68.2,15.6,56.2,69.9,45.4,77.3s-30.2,11-67.6-13.1c-37.4-24-137.7-33.7-137.7-33.7l7.4-38
				L2050.4,1678.2z"/>
			<path class="st12" d="M1640.3,1599c-68.9-10.9-71.9,45.2-63.7,56.2c8.2,11,25.7,21.8,67.6,13.1c41.9-8.7,139.6,19.9,139.6,19.9
				l3.1-38.8L1640.3,1599z"/>
			<path class="st13" d="M2067.8,1479.8c0,0,43.2-44.9,101.6-37.7c58.4,7.2,89,91.9,60.6,148.8c-28.5,56.9-61.5,84.3-102.6,94.8
				c-41.1,10.5-196.5-11.4-196.5-11.4l-6.1,44.5c0,0-155.6-37.9-202.3-40.7s-184.8-63.4-219.2-114c-34.4-50.6-6.4-133.9,24.5-153.9
				c31-19.9,225.9,61.7,271.3,63c45.4,1.3,92.1-43.9,145.5-25.4C1998.1,1466.3,2067.8,1479.8,2067.8,1479.8z"/>
			<g>
				<defs>
					<path id="SVGID_7_" d="M2067.8,1479.8c0,0,43.2-44.9,101.6-37.7c58.4,7.2,89,91.9,60.6,148.8c-28.5,56.9-61.5,84.3-102.6,94.8
						c-41.1,10.5-196.5-11.4-196.5-11.4l-6.1,44.5c0,0-155.6-37.9-202.3-40.7s-184.8-63.4-219.2-114
						c-34.4-50.6-6.4-133.9,24.5-153.9c31-19.9,225.9,61.7,271.3,63c45.4,1.3,92.1-43.9,145.5-25.4
						C1998.1,1466.3,2067.8,1479.8,2067.8,1479.8z"/>
				</defs>
				<clipPath id="SVGID_8_">
					<use xlink:href="#SVGID_7_"  style="overflow:visible;"/>
				</clipPath>
				<path class="st27" d="M1539.8,1652.4c0,0-72.3-197,15.5-206.2s182.4,132.3,255.9,116.8c73.5-15.6,142.7,3.6,189.7-41.8
					c47-45.5,158.5-74,183.4-27.1c25,46.8,35.5,135.7-9.2,189.2c-44.7,53.4,113,51.1,89.3-103.4s-86.1-190.4-148.5-146.7
					c-62.4,43.8-154.7-46.4-229.1-8.1c-74.4,38.3-311.5-75.7-366.4-26.6C1465.6,1447.5,1414.3,1615.5,1539.8,1652.4z"/>
			</g>
			<path class="st0" d="M1930.9,1674.4c-22.5-16.1-45-32.1-67.8-47.5c-11.4-7.6-22.8-15.2-34.5-22.3c-11.7-7.1-23.3-14.6-34.7-22.2
				c-11.4-7.7-22.8-15.5-34.1-23.4c-11.3-8-22.6-15.9-33.8-24c-22.4-16.2-44.7-32.7-66.6-49.9c23,15,45.8,30.4,68.6,45.9l34.2,23.2
				c11.4,7.8,22.8,15.5,34.2,23.1c5.7,3.8,11.4,7.6,17.2,11.4c5.7,3.8,11.5,7.3,17.3,11c11.6,7.4,23,15.1,34.3,23.3
				C1887.6,1639,1909.5,1656.2,1930.9,1674.4z"/>
			<path class="st0" d="M1815.5,1590.2c8.9-4.6,18-8.6,27.3-12.4c9.2-3.7,18.6-7.1,28-9.9c9.5-2.9,19-5.2,28.8-6.9l7.2-1.2
				c2.4-0.4,4.7-0.7,7.1-1.3c2.4-0.6,4.7-1,7.1-1.6l7-1.9c9.4-2.7,18.7-5.8,27.9-9.1c9.3-3.3,18.5-6.9,27.7-10.5
				c18.4-7.3,36.6-15.1,55-22.6c-17.6,9.8-35.5,18.9-53.7,27l-6.8,3.1l-6.9,2.9c-2.3,1-4.6,1.9-6.9,2.8l-6.9,2.8
				c-9.3,3.5-18.7,6.7-28.2,9.5l-7.2,1.9c-2.4,0.6-4.8,1.1-7.2,1.6c-2.4,0.6-4.9,0.9-7.3,1.3c-2.5,0.4-4.8,0.8-7.2,1.1
				c-9.5,1.3-19,3.5-28.5,5.8c-9.4,2.4-18.8,5.2-28.2,8.2C1834.1,1583.5,1824.8,1586.8,1815.5,1590.2z"/>
			<path class="st0" d="M1771.7,1499.3c8.9,3.6,17.6,8,26.1,12.8c8.5,4.8,16.8,10,24.9,15.8c4,2.9,8,5.9,11.9,9
				c3.9,3.2,7.7,6.5,11.4,10.1c3.7,3.5,7.2,7.3,10.5,11.4c3.2,4.1,6.3,8.5,8.4,13.6c-3.1-4.3-6.5-8-10.1-11.4
				c-3.6-3.5-7.4-6.7-11.2-9.8c-7.7-6.2-15.6-12-23.6-17.7c-8-5.7-16.1-11.2-24.1-16.8C1787.9,1510.7,1779.8,1505.1,1771.7,1499.3z"
				/>
		</g>
		<path class="st28" d="M1989,1379.1l51.1,38.5c0,0,18.8-56.9,30.7-92.4c11.8-35.5,69.6-213.6-6.1-256.2
			c-75.8-42.6-240.4-104.2-291.8-83c-51.4,21.1-96.4,26.6-146.6,129l-25.4,135.8l51.1,110.2c0,0,15.9,66,3.9,76.5
			c0,0,30.6,42,79.1,30.4s160.6,67.7,227.2,11.7C2028.6,1423.5,1989,1379.1,1989,1379.1z"/>
		<path class="st11" d="M1806.3,929.4c0,0-20.9,41.3-64.4,68.6c0,0,52.6-18.6,75.7-15.4L1806.3,929.4z"/>
		<path class="st11" d="M1710.3,1300.8c0.9-2.6,1.7-5.2,2.4-7.9c0.4-1.3,0.7-2.7,1.1-4c0.4-1.3,0.7-2.7,1-4
			c1.3-5.4,2.2-10.8,3.1-16.2c1.7-10.9,2.5-21.8,2.5-32.8l0-4.1c0-1.4-0.1-2.7-0.1-4.1l-0.1-4.1c0-1.4-0.1-2.7-0.2-4.1l-0.7-8.2
			c-0.1-1.4-0.3-2.7-0.5-4.1l-0.6-4.1l-0.6-4.1c-0.2-1.3-0.5-2.7-0.7-4l-1.5-8c-1.2-5.4-2.4-10.8-3.5-16.2
			c-2.2-10.8-4.3-21.7-6.1-32.6c-1.8-10.9-3.5-21.8-4.7-32.8c-1.3-11-2.2-22-2.4-33.1c0-5.5,0-11.1,0.6-16.6
			c0.3-2.8,0.8-5.5,1.4-8.2c0.7-2.7,1.6-5.4,3.3-7.6c-1.4,2.4-2.1,5.1-2.6,7.8c-0.4,2.7-0.7,5.4-0.8,8.2c-0.3,5.5-0.1,11,0.3,16.4
			c0.3,5.5,0.9,11,1.5,16.4c0.6,5.5,1.3,10.9,2.1,16.4c0.8,5.4,1.7,10.9,2.5,16.3c0.9,5.4,1.9,10.8,2.9,16.3
			c2,10.8,4.1,21.6,6.3,32.4c1.1,5.4,2.2,10.8,3.4,16.2l1.5,8.2c0.2,1.4,0.5,2.7,0.7,4.1l0.5,4.1c1.5,11,1.9,22.2,1.5,33.3
			c-0.4,11.1-1.6,22.2-3.8,33.1c-1.2,5.4-2.4,10.8-4,16.1C1714.3,1290.5,1712.5,1295.7,1710.3,1300.8z"/>
		<path class="st16" d="M1845.2,1047.5c0,0,10.6,30.3,43,30.3c32.4,0,40.7-9.6,41.2-21c0.4-11.4-13.8-35-13.8-35
			S1866.6,1050.5,1845.2,1047.5z"/>
		<path class="st17" d="M1857.8,1046.7c0,0,27.1,21.6,50.8,1.3c23.7-20.4,15.5-45.1,15.5-45.1L1857.8,1046.7z"/>
		<path class="st16" d="M1843.5,834.8c0,0-45.5,52.6-35.9,104.7c9.6,52.1,14.9,63.5,17.3,80.6c2.4,17.1,11.6,33.3,37.9,26.3
			s62.6-29.8,62.6-29.8s28.9-3.1,28.9-85.8S1843.5,834.8,1843.5,834.8z"/>
		<g>
			<g>
				<path class="st18" d="M1818.1,896.7c0.5,0.9,1.5,1.6,2.6,1.8c12.9,1.6,17.6,14.4,17.6,14.5c0.6,1.8,2.6,2.8,4.5,2.1
					c1.8-0.6,2.8-2.6,2.1-4.5c-0.2-0.7-6.2-17-23.3-19.2c-1.9-0.2-3.7,1.1-3.9,3C1817.6,895.4,1817.8,896.1,1818.1,896.7z"/>
			</g>
			<g>
				<path class="st18" d="M1875.2,932.7c0.9,0.6,2.1,0.8,3.2,0.4c12.2-4.3,22.2,5,22.3,5.1c1.4,1.4,3.6,1.3,4.9-0.1
					c1.3-1.4,1.3-3.6-0.1-4.9c-0.5-0.5-13.2-12.4-29.5-6.7c-1.8,0.6-2.8,2.6-2.1,4.5C1874.2,931.8,1874.6,932.3,1875.2,932.7z"/>
			</g>
			<g>
				<g>
					<g>
						<g>
							<g>
								<g>
									<g>
										<g>
											<path class="st0" d="M1833.9,997.6c0,0,0.5,0.2,1.5,0.6c0.9,0.4,2.3,0.9,3.9,1.4c3.3,1,7.7,1.8,12.3,2.1
												c4.6,0.2,9.1-0.1,12.5-0.8c1.7-0.3,3.2-0.7,4.2-1c1-0.3,1.6-0.5,1.6-0.5s-0.2,0.4-0.8,1.2c-0.6,0.8-1.5,1.8-3,2.9
												c-2.9,2.2-8.5,4.7-15.2,4.3c-6.7-0.4-11.8-3.4-14.2-5.9c-1.2-1.3-2-2.4-2.4-3.2C1834,998.1,1833.9,997.6,1833.9,997.6z"
												/>
										</g>
									</g>
								</g>
							</g>
						</g>
					</g>
				</g>
			</g>
			<path class="st18" d="M1843.5,932.1c-1.2,3.7-2.6,7.3-4,10.9c-1.4,3.6-2.9,7.1-4.5,10.7c-3.1,7-6.5,14-10,20.8l0-2
				c0.2,0.4,0.6,1,0.9,1.5c0.3,0.5,0.7,1,1.1,1.5c0.8,1,1.6,2,2.5,2.9c1.8,1.8,3.8,3.4,6,4.5c1.1,0.6,2.3,1.1,3.5,1.4
				c1.2,0.3,2.5,0.6,3.8,0.7c2.6,0.2,5.3-0.1,8-0.7c-2.4,1.3-5.1,2.3-7.9,2.5c-2.8,0.3-5.8-0.1-8.6-1.1c-2.8-1-5.3-2.6-7.5-4.5
				c-1.1-1-2.1-2-3.1-3.1c-0.5-0.6-0.9-1.1-1.4-1.7c-0.4-0.6-0.8-1.2-1.2-1.9l-0.5-0.9l0.5-1c3.3-7,6.8-13.8,10.5-20.6
				c1.8-3.4,3.7-6.7,5.7-10.1C1839.2,938.6,1841.3,935.3,1843.5,932.1z"/>
			<path class="st18" d="M1871.8,943.2c1.4,3.4,3.6,6.4,6.2,8.9c2.6,2.5,5.7,4.4,9.1,5.6c3.4,1.2,7,1.8,10.6,1.9
				c3.6,0.2,7.3-0.1,11-0.6c-3.5,1.1-7.2,1.8-11,1.9c-0.9,0-1.9,0.1-2.8,0c-0.9,0-1.9-0.1-2.8-0.3c-1.9-0.3-3.7-0.7-5.5-1.4
				c-1.8-0.7-3.5-1.5-5.1-2.6c-1.6-1.1-3.1-2.3-4.3-3.7C1874.4,950.3,1872.5,946.9,1871.8,943.2z"/>
			<path class="st18" d="M1816.5,911.8c0.8,2.2,2,4.1,3.5,5.7c1.5,1.6,3.3,2.9,5.2,3.9l1.5,0.6c0.5,0.2,1.1,0.3,1.6,0.5
				c1,0.4,2.2,0.5,3.3,0.7c0.5,0.1,1.1,0.1,1.7,0.2l1.7,0.2c1.1,0,2.3,0.1,3.5,0.2c-1.1,0.3-2.3,0.5-3.4,0.7
				c-1.2,0.1-2.3,0.2-3.5,0.1c-2.4-0.1-4.7-0.6-6.9-1.7c-2.2-1.1-4.1-2.6-5.5-4.6C1817.6,916.4,1816.6,914.1,1816.5,911.8z"/>
		</g>
		<path class="st11" d="M1885.5,854c0,0,34.2,28.6,33.3,85.2c-0.9,56.7-18,269.5,18,281.3c35.9,11.8,125.3,31.1,129.6-70.5
			s-22.3-226.9-19.3-254.9c3.1-28,1.8-146.7-103.8-146.3c-105.5,0.4-115.8,90.7-115.8,90.7l2.1,13.2
			C1829.5,852.8,1837.8,823.8,1885.5,854z"/>
		<g>
			<path class="st16" d="M1591.3,1220.8l2.1-1.5l-1.6-1.6l-27.7,1.9C1564,1219.6,1578.9,1222.1,1591.3,1220.8z"/>
			<path class="st17" d="M1591.3,1220.8l2.1-1.5l-1.6-1.6l-27.7,1.9C1564,1219.6,1578.9,1222.1,1591.3,1220.8z"/>
		</g>
		<g>
			<path class="st19" d="M1824.5,1137.9c0,0-2.6-29-32.1-27.9l-16.6,0.3l1.1,16.3L1824.5,1137.9z"/>
			<polygon class="st20" points="1566,1117 1775.8,1110.3 1777,1126.6 1566.4,1129 			"/>
			<path class="st10" d="M1781.6,1212.7l-5.3-98.4l8.4-0.3c21.3-0.7,39.1,10.5,39.9,25.1l2.5,45.5c0.8,14.6-15.8,27-37.1,27.8
				L1781.6,1212.7z"/>
			<polygon class="st21" points="1781.6,1212.7 1776.3,1114.3 1566,1121.5 1571.3,1219.9 			"/>
			<path class="st22" d="M1520.5,1149.6c0,0-0.5-29.1,29-31.2l16.5-1.5l0.6,16.3L1520.5,1149.6z"/>
			<path class="st8" d="M1522.9,1195.1l-2.5-45.5c-0.8-14.6,15.8-27,37.1-27.8l8.4-0.3l5.3,98.4l-8.4,0.3
				C1541.6,1220.9,1523.7,1209.7,1522.9,1195.1z"/>
		</g>
		<path class="st16" d="M1567.1,1278.5c0,0,28.1,98.8,95.9,111.5c0,0,24.1-4.4,32.8-36.8c8.8-32.4,14.5-52.6,14.5-52.6l-56.1-22.2
			c0,0-34.6-17.7-49.9-40.4L1567.1,1278.5z"/>
		<g>
			<defs>
				<path id="SVGID_9_" d="M1567.1,1278.5c0,0,28.1,98.8,95.9,111.5c0,0,24.1-4.4,32.8-36.8c8.8-32.4,14.5-52.6,14.5-52.6
					l-56.1-22.2c0,0-34.6-17.7-49.9-40.4L1567.1,1278.5z"/>
			</defs>
			<clipPath id="SVGID_10_">
				<use xlink:href="#SVGID_9_"  style="overflow:visible;"/>
			</clipPath>
			<path class="st29" d="M1606.2,1240.8c0,0-10,79.3,0,88.9c10,9.6,50.9,60.7,71.3,38.5s25.8-61,25.8-61l-47.5-31.9l66.8,29.3
				l-41.2,87.6l-30.2,6.1l-65.7-57.4l-21.5-65.7L1606.2,1240.8z"/>
		</g>
		<path class="st16" d="M1850,1170.7c0,0-9.4-32.2-22.6-28.9c-13.1,3.3-55,8.8-53.2,16s16.6,9.9,16.6,9.9s-18.2,9.6-19.7,11.6
			c-1.5,2-14.2,16.2-14,19.5c0.2,3.3,7,10.9,12.9,4.6c5.9-6.4,8.1-5.7,5.9-2c-2.2,3.7-3.5,10.5,0.4,13.1s1.1,1.1,4.8,7.2
			c3.7,6.1,19.1,14.5,19.1,14.5s-1.3,16.9,3.3,21.7c4.6,4.8,12.5,3.5,18.2,18.2c5.7,14.7,35.7,132.9,91.8,144
			c56.1,11.1,75.3-40.9,75.3-40.9l-53.1-68.3c0,0-17.4,15.3-85.7-83.7c0,0,10.5-29.3,5.3-37.7C1850,1181.2,1850,1170.7,1850,1170.7z
			"/>
		<path class="st16" d="M1497,1189.5c0,0-6.6-17.5,0-22.8s64.4-5.9,65.5,6.1c1.1,12-9.2,11.4-9.2,11.4s4.8,10.1,2,14.5
			c-2.8,4.4,7.2,5.3,3.3,14.7c-3.9,9.4,32.4,7.2,32.4,7.2s5.9,25.3-18.4,33.2c-24.3,8-57.4,5.3-56.9-5.2c0.4-10.5-6.6-9.4-8.3-15.3
			c-1.8-5.9,0.7-11.4-5.5-17.5C1495.7,1209.7,1491.6,1202.2,1497,1189.5z"/>
		<path class="st11" d="M1546.5,1258.4c0,0,2.6,13.9,10.9,17.4c8.3,3.5,33.3,8.3,38.1-3.5s14.5-43.8,14.5-43.8s-10.9-15.8-19.1-7.9
			C1591,1220.6,1600,1257.1,1546.5,1258.4z"/>
		<path class="st28" d="M1937.2,1494c0,0,97.2-24,127.3-7.4c0,0-5.3-38-24.4-68.9l-43.1-19.3L1937.2,1494z"/>
		<path class="st11" d="M1655.8,1279.1c22.6,13.6,32.6,44.2,32.6,44.2"/>
		<path class="st11" d="M1504.9,1188.9c1-1,2-2,2.9-3l1.4-1.6l0.3-0.4c0.2-0.1,0.4-0.3,0.5-0.4c0.4-0.2,0.7-0.4,1.1-0.5
			c2.8-0.8,5.7-1,8.5-1.2c5.6-0.3,11.2-0.2,16.8,0.1c2.8,0.2,5.6,0.3,8.4,0.5c2.8,0.3,5.6,0.5,8.4,0.8c0.5,0.1,1.2,0,1.8-0.1
			c0.6-0.1,1.2-0.3,1.8-0.5c1.2-0.5,2.2-1.2,3.1-2.2c1.7-2,2.4-4.8,2.6-7.6c0.4,2.8,0,5.8-1.6,8.3c-0.8,1.3-2,2.3-3.4,3
			c-0.7,0.3-1.4,0.6-2.2,0.8c-0.8,0.2-1.5,0.3-2.4,0.3l-16.7-0.8c-2.8-0.2-5.6-0.3-8.3-0.4c-2.8-0.1-5.6-0.2-8.3-0.3
			c-1.4,0-2.8,0-4.1,0c-1.4,0-2.8,0.1-4,0.4c-0.3,0-0.6,0.2-0.9,0.2c-0.1,0.1-0.2,0.1-0.3,0.2l-0.4,0.3c-0.5,0.5-1.1,0.9-1.6,1.4
			C1507.2,1187.2,1506.1,1188.1,1504.9,1188.9z"/>
		<path class="st11" d="M1508.9,1218.4c3-3.1,6.1-6.3,8.4-9.7c0.3-0.4,0.5-0.9,0.8-1.3c0.1-0.2,0.4-0.6,0.7-0.8
			c0.3-0.2,0.5-0.5,0.8-0.6c1.1-0.7,2.1-1.1,3.2-1.5c2.1-0.7,4.3-1.2,6.5-1.6c4.3-0.8,8.7-1.3,13-1.6c4.3-0.4,8.7-0.5,13-0.6
			l-0.7,1.8c-1-1-0.9-2.3-0.6-3.2c0.1-0.2,0.2-0.4,0.3-0.7l0.3-0.5c0.2-0.3,0.3-0.5,0.4-0.8c0.5-1.2,0.5-2.7,0.4-4.2
			c-0.1-1.5-0.4-2.9-0.8-4.4c-0.4-1.5-0.8-2.9-1.3-4.4c0.7,1.3,1.4,2.7,2,4.1c0.6,1.4,1.1,2.9,1.4,4.5c0.3,1.5,0.5,3.2,0,4.9
			c-0.1,0.4-0.3,0.8-0.5,1.2l-0.3,0.5c-0.1,0.1-0.1,0.3-0.1,0.4c-0.1,0.2-0.1,0.5,0,0.7c0,0.1,0,0.2,0.1,0.2c0,0,0,0.1,0.1,0.1
			c0,0,0.1,0.1,0,0l-0.7,1.8c-4.3,0.3-8.6,0.7-12.9,1.1c-4.3,0.4-8.6,0.8-12.8,1.5c-2.1,0.3-4.2,0.7-6.2,1.2c-1,0.3-2,0.6-2.8,1
			c-0.2,0.1-0.4,0.2-0.5,0.3c-0.1,0.1-0.1,0.1-0.2,0.2c-0.1,0.1-0.1,0.1-0.2,0.2c-0.3,0.5-0.6,0.9-1,1.4c-1.4,1.8-3,3.3-4.6,4.7
			C1512.4,1215.8,1510.6,1217.2,1508.9,1218.4z"/>
		<path class="st11" d="M1520.5,1240.3c1.3-3.7,3.6-7.1,6.4-9.9c1.4-1.4,3-2.6,4.7-3.7c0.9-0.5,1.8-1,2.6-1.4l1.4-0.6
			c0.5-0.2,0.9-0.4,1.4-0.5c0.9-0.3,1.9-0.6,2.8-0.9c0.9-0.3,1.9-0.5,2.8-0.8c1.8-0.6,3.6-1.2,5.4-2c1.8-0.7,3.5-1.5,5.1-2.5
			c0.8-0.5,1.6-1,2.4-1.5c0.4-0.3,0.7-0.5,1.1-0.8c0.3-0.3,0.7-0.6,1-0.8l1.7-1.7l0.5,2.3c0.5,2,0.6,3.9,0.6,5.8
			c0,1.9-0.2,3.9-0.6,5.8c-0.9,3.8-2.7,7.4-5.4,10.2c-0.7,0.7-1.4,1.3-2.1,2c-0.8,0.6-1.6,1.1-2.4,1.6c-0.8,0.5-1.6,0.9-2.4,1.4
			l-2.3,1.4c-1.5,1-3.1,2-4.5,3.1c-0.7,0.6-1.4,1.1-2.1,1.8c-0.3,0.3-0.6,0.7-0.9,1c-0.2,0.4-0.5,0.8-0.4,1.2
			c-0.2-0.4,0-0.9,0.2-1.3c0.2-0.4,0.5-0.8,0.8-1.2c0.6-0.7,1.2-1.4,1.9-2.1c1.3-1.3,2.8-2.4,4.3-3.6c1.5-1.1,3-2.2,4.5-3.2
			c0.7-0.6,1.4-1.1,2.1-1.7c0.6-0.6,1.3-1.2,1.8-1.9c2.3-2.7,3.8-5.9,4.4-9.4c0.3-1.7,0.5-3.5,0.4-5.2c0-1.7-0.2-3.6-0.6-5.2
			l2.2,0.6c-0.5,0.5-0.8,0.8-1.2,1.1c-0.4,0.3-0.8,0.6-1.2,0.9c-0.8,0.6-1.7,1.1-2.6,1.6c-1.8,1-3.6,1.8-5.4,2.6
			c-1.9,0.7-3.7,1.3-5.7,1.9c-1.9,0.6-3.9,1-5.6,1.5c-3.6,1-7,2.9-9.9,5.3C1524.8,1233.8,1522.3,1236.9,1520.5,1240.3z"/>
		<path class="st11" d="M1790.9,1167.6c3.5-0.7,7-1.1,10.6-1.4c1.8-0.2,3.5-0.2,5.3-0.3c1.8-0.1,3.5-0.1,5.3-0.1
			c3.6,0,7.1,0.1,10.7,0.5c1.8,0.2,3.6,0.4,5.3,0.8c0.9,0.2,1.8,0.4,2.6,0.7c0.9,0.3,1.7,0.6,2.4,1.2c-0.8-0.3-1.7-0.4-2.6-0.5
			c-0.9-0.1-1.7-0.1-2.6-0.1c-1.8,0-3.5,0-5.3,0c-3.5,0-7,0.1-10.6,0.1c-3.5,0-7.1,0-10.6-0.2
			C1798,1168.2,1794.5,1168,1790.9,1167.6z"/>
		<path class="st11" d="M1775.8,1198.6c2.3-3.7,5.7-6.7,9.6-8.7c3.9-2.1,8.4-3.1,12.8-3.2c4.3,0,8.6,0.3,12.9,0.9
			c4.3,0.6,8.5,1.4,12.6,2.8c-4.3-0.3-8.5-0.5-12.8-0.8c-2.1-0.1-4.2-0.2-6.4-0.2c-2.1-0.1-4.3-0.1-6.3-0.1c-1,0-2,0-3.1,0.1
			l-1.5,0.2c-0.5,0.1-1,0.2-1.5,0.3c-0.5,0.1-1,0.2-1.5,0.3l-1.5,0.4c-1,0.4-2,0.6-2.9,1.1
			C1782.5,1193.3,1778.9,1195.6,1775.8,1198.6z"/>
		<path class="st11" d="M1778.6,1216.2c1.3-1.4,2.7-2.7,4.2-3.9c0.8-0.6,1.5-1.2,2.4-1.7c0.9-0.5,1.7-1,2.9-1.2c0.3,0,0.6-0.1,1,0
			c0.2,0,0.4,0.1,0.6,0.1l0.1,0.1c0,0,0,0,0.1,0l0.1,0c0.2,0,0.3,0.1,0.5,0.1l0.7,0.1c0.9,0.1,1.8,0.2,2.7,0.3
			c1.9,0.2,3.7,0.3,5.6,0.5c3.7,0.3,7.5,0.7,11.2,1.1c3.7,0.4,7.5,0.9,11.2,1.6c-3.8,0.4-7.6,0.4-11.4,0.4c-3.8,0-7.6-0.2-11.3-0.5
			c-1.9-0.2-3.8-0.4-5.7-0.6c-1-0.1-1.9-0.3-2.9-0.5l-0.7-0.2c-0.2,0-0.6-0.2-0.9-0.3l-0.3-0.1c0,0-0.1,0-0.1,0c-0.1,0-0.2,0-0.4,0
			c-0.7,0-1.6,0.3-2.4,0.7c-0.8,0.3-1.7,0.8-2.5,1.2C1781.9,1214.2,1780.3,1215.2,1778.6,1216.2z"/>
		<path class="st11" d="M1800.3,1236.2c1.9-0.2,3.8,0,5.6,0.1c1.8,0.2,3.7,0.5,5.5,0.9c1.8,0.4,3.6,0.9,5.4,1.4
			c1.8,0.6,3.5,1.2,5.2,2.2c-1.9,0.2-3.8,0-5.6-0.1c-1.8-0.2-3.7-0.5-5.5-0.9c-1.8-0.4-3.6-0.9-5.4-1.4
			C1803.8,1237.7,1802,1237.1,1800.3,1236.2z"/>
		<path class="st11" d="M1842.1,1224.1c0.4,2.1,0.1,4.3-0.4,6.3c-0.6,2.1-1.5,4.1-2.7,5.8c-1.2,1.8-2.7,3.4-4.4,4.7
			c-0.8,0.7-1.8,1.2-2.7,1.7c-0.9,0.5-1.9,0.9-2.9,1.2c0.7-0.8,1.5-1.5,2.2-2.2c0.7-0.7,1.4-1.4,2.1-2.2c1.4-1.4,2.5-3,3.6-4.6
			c1.1-1.6,2.1-3.3,2.9-5.1C1840.7,1227.9,1841.4,1226.1,1842.1,1224.1z"/>
		<g>
			<defs>
				<path id="SVGID_11_" d="M1850.2,1170.7c0,0-9.4-32.2-22.6-28.9c-13.1,3.3-55,8.8-53.2,16c1.8,7.2,16.6,9.9,16.6,9.9
					s-18.2,9.6-19.7,11.6c-1.5,2-14.2,16.2-14,19.5c0.2,3.3,7,10.9,12.9,4.6c5.9-6.4,8.1-5.7,5.9-2c-2.2,3.7-3.5,10.5,0.4,13.1
					c3.9,2.6,1.1,1.1,4.8,7.2c3.7,6.1,19.1,14.5,19.1,14.5s-1.3,16.9,3.3,21.7s12.5,3.5,18.2,18.2c5.7,14.7,35.7,132.9,91.8,144
					c56.1,11.1,75.3-40.9,75.3-40.9l-53.1-68.3c0,0-17.4,15.3-85.7-83.7c0,0,10.5-29.3,5.3-37.7
					C1850.2,1181.2,1850.2,1170.7,1850.2,1170.7z"/>
			</defs>
			<clipPath id="SVGID_12_">
				<use xlink:href="#SVGID_11_"  style="overflow:visible;"/>
			</clipPath>
			<path class="st30" d="M1857.6,1172.7c0,0-6.6,54.8-24.3,68.2c-17.7,13.3-23.9-8-30,2.9c-6.1,10.9-10.2,25.5-1.5,26.1
				c8.8,0.6,74.7,156.8,85,155c10.2-1.8,43.5,11.4,55.2,1.5c0,0,47-22.8,50.2-32.7c3.2-9.9,2.6-18.4,2.6-18.4l-12.8-10.2
				c0,0-47.9,60.4-75.3,39.7c-27.4-20.7-84.5-146.3-84.5-146.3s15-4.1,23.8-17.8s15.2-52.8,15.2-52.8L1857.6,1172.7z"/>
		</g>
		<path class="st31" d="M1978.5,1396.9l61.6,20.8l-51.1-38.5C1989,1379.1,1986.2,1388.5,1978.5,1396.9z"/>
		<path class="st11" d="M1766.4,1205.6c-1.2,0.3-2.5,0.4-3.8,0c-1.2-0.4-2.4-1.1-3.3-2c-0.9-0.9-1.7-2-2.3-3.2
			c-0.1-0.3-0.3-0.6-0.4-1c-0.1-0.2-0.1-0.4-0.1-0.6c0-0.2,0-0.5,0.1-0.7c0.2-0.7,0.4-1.3,0.7-1.9c2.1-4.7,4.8-8.9,8.1-12.9
			c1.6-2,3.4-3.8,5.5-5.4c2-1.5,4.2-2.9,6.3-4.2c4.3-2.6,8.8-4.9,13.3-7.1l0.2-0.1l0.2,0c3.8,0,7.7,0.1,11.5,0.1
			c3.8,0.1,7.7,0.2,11.5,0.4c-3.8,0.4-7.7,0.7-11.5,0.9c-3.8,0.3-7.7,0.5-11.5,0.6l0.5-0.1c-4.4,2.3-8.7,4.8-12.9,7.3
			c-2.1,1.3-4.2,2.6-6.1,4.1c-1.9,1.4-3.6,3.1-5.2,4.9c-1.6,1.8-3.1,3.8-4.5,5.8c-1.4,2-2.7,4.1-3.9,6.2c-0.3,0.5-0.5,1.1-0.7,1.6
			c-0.1,0.2,0,0.9,0.2,1.4c0.4,1.1,1,2.1,1.7,3.1c0.8,0.9,1.7,1.7,2.8,2.2C1763.9,1205.6,1765.2,1205.8,1766.4,1205.6z"/>
		<path class="st11" d="M1785,1191.2c-2,1.8-4,3.5-5.8,5.3c-0.9,0.9-1.8,1.8-2.3,2.7c-0.5,0.9-0.8,2.2-1.1,3.4
			c-0.5,2.4-0.8,5-0.7,7.4c0,0.6,0.2,1.2,0.3,1.8c0.1,0.6,0.3,1.2,0.6,1.7c0.5,1.1,1.4,2,2.6,2.6c-0.7,0-1.4-0.2-2-0.5
			c-0.6-0.3-1.2-0.8-1.7-1.3c-1-1.1-1.5-2.5-1.9-3.9c-0.7-2.8-0.5-5.6,0.1-8.3c0.3-1.4,0.7-2.7,1.5-4.1c0.9-1.4,2-2.2,3.1-3.1
			C1780,1193.4,1782.4,1192.1,1785,1191.2z"/>
		<path class="st11" d="M1555.2,1201.7c1.1,0.4,2.1,1.1,3,1.9c0.8,0.8,1.6,1.8,2,3c0.5,1.2,0.7,2.5,0.6,3.8
			c-0.2,1.3-0.8,2.5-1.6,3.4l0.1-0.1c-0.1,0.1-0.2,0.3-0.3,0.4c-0.1,0.2-0.2,0.3-0.3,0.5c-0.2,0.3-0.3,0.7-0.2,1.1
			c-0.4-0.3-0.6-0.8-0.6-1.2c0-0.2,0-0.5,0-0.7c0-0.2,0-0.5,0.1-0.7l0.1-0.1c0.3-1,0.5-1.9,0.4-2.8c0-0.9-0.2-1.8-0.5-2.7
			c-0.3-0.9-0.7-1.8-1.2-2.8L1555.2,1201.7z"/>
		<path class="st11" d="M1669.6,1284.6c3.5,1.1,6.9,2.3,10.4,3.5c3.5,1.2,6.9,2.4,10.3,3.7c3.4,1.3,6.9,2.5,10.3,3.8
			c3.4,1.3,6.8,2.6,10.2,3.9l1.1,0.4l-0.3,1.1c-1.3,4.8-2.6,9.7-4,14.5c-1.3,4.8-2.8,9.6-4.2,14.4c-2.9,9.6-5.8,19.2-9.1,28.6
			c2.1-9.8,4.5-19.5,7-29.2c1.3-4.8,2.5-9.7,3.9-14.5c1.3-4.8,2.7-9.6,4-14.5l0.8,1.5c-3.4-1.3-6.8-2.8-10.1-4.1
			c-3.4-1.4-6.7-2.8-10.1-4.2c-3.4-1.4-6.7-2.9-10-4.4C1676.2,1287.7,1672.9,1286.2,1669.6,1284.6z"/>
		<path class="st11" d="M1671.5,1044.7c3.6-5.1,7.9-9.7,12.4-14.1c4.5-4.3,9.3-8.4,14.4-12c5.1-3.7,10.5-7,16.1-9.8
			c1.4-0.7,2.8-1.4,4.3-2c1.4-0.6,2.9-1.2,4.4-1.8l2.2-0.8c0.7-0.3,1.5-0.5,2.2-0.7c1.5-0.5,3-0.9,4.5-1.3c-1.3,0.8-2.7,1.6-4,2.4
			c-0.7,0.4-1.4,0.7-2,1.1l-2,1.2c-1.3,0.8-2.7,1.5-4,2.4c-1.3,0.8-2.6,1.7-3.9,2.5c-5.1,3.4-10.2,6.8-15.2,10.4
			c-5,3.6-9.9,7.3-14.7,11.1C1681.2,1037,1676.4,1040.9,1671.5,1044.7z"/>
		<path class="st11" d="M1921,1307.4c3.9-3.7,7.4-7.7,10.7-11.9c3.3-4.1,6.4-8.5,9.3-12.9c5.7-8.9,10.7-18.2,14.8-27.9
			c0.5-1.2,1-2.4,1.5-3.7c0.5-1.2,1-2.4,1.4-3.7l1.4-3.7l1.3-3.8c0.4-1.2,0.8-2.5,1.2-3.8l1.2-3.8l1-3.8l0.5-1.9l0.5-1.9
			c2.5-10.3,4.3-20.8,5.7-31.4c0.4,10.7-0.4,21.5-2.4,32.1c-0.4,2.7-1.1,5.3-1.6,7.9l-1,3.9c-0.3,1.3-0.7,2.6-1.1,3.9
			c-1.5,5.2-3.4,10.3-5.5,15.3c-4.2,10-9.6,19.5-16,28.2c-3.2,4.4-6.7,8.5-10.5,12.4C1929.4,1300.8,1925.4,1304.5,1921,1307.4z"/>
		<path class="st11" d="M1778.6,1153.3c1.9-1,4-1.8,6-2.5c2.1-0.7,4.2-1.3,6.3-1.9c4.2-1.1,8.4-2.1,12.7-3
			c8.5-1.8,17.1-3.4,25.7-4.8l0,0l0.1,0c1.7,0.1,3.2,0.7,4.6,1.5c1.4,0.8,2.6,1.9,3.7,3c2.2,2.3,4,4.9,5.6,7.6
			c1.6,2.7,3,5.6,4.2,8.4c1.2,2.9,2.3,5.8,3.3,8.8l0,0.1l0,0.1c0.1,1.6,0.2,3.2,0.5,4.8c0.2,1.6,0.6,3.2,1,4.7
			c0.4,1.6,0.9,3.1,1.6,4.6c0.6,1.5,1.3,3,2.2,4.2l0.1,0.1l0,0.1c1.3,3.2,1.5,6.6,1.5,9.9c-0.1,3.3-0.5,6.5-1.1,9.7
			c-0.6,3.2-1.4,6.4-2.3,9.5c-0.9,3.1-1.9,6.2-3.1,9.3l-0.1-0.9c1.3,2.1,2.7,4.3,4.2,6.3c1.5,2.1,3,4.2,4.5,6.2
			c3.1,4.1,6.2,8.2,9.3,12.2c6.3,8.1,12.8,16,19.5,23.8c1.7,2,3.4,3.9,5.1,5.8c1.7,1.9,3.4,3.8,5.2,5.7c1.7,1.9,3.5,3.7,5.3,5.5
			l2.7,2.7l1.4,1.3l1.4,1.3c3.8,3.4,7.8,6.5,12.2,9c1.1,0.7,2.2,1.2,3.3,1.7l1.7,0.7c0.6,0.2,1.2,0.4,1.7,0.6
			c0.6,0.2,1.2,0.3,1.8,0.4c0.6,0.1,1.2,0.2,1.7,0.2c0.6,0,1.1,0,1.7,0c0.3,0,0.5-0.1,0.8-0.1c0.1,0,0.2-0.1,0.3-0.1
			c0.1,0,0.1,0,0.1-0.1c0,0,0.1,0,0.1,0l1.7,0.3c8.9,11.4,17.7,22.8,26.6,34.2l26.5,34.2l-0.2-0.2l51,38.6l-1.7,0.5l24-74.4
			l12.1-37.2l12.2-37.1l-11.5,37.4l-11.5,37.3l-23.3,74.6l-0.4,1.4l-1.2-0.9l-51.2-38.4l-0.1-0.1l-0.1-0.1l-26.6-34.1
			c-8.9-11.4-17.8-22.7-26.6-34.2l1.7,0.3c-0.2,0.1-0.3,0.1-0.4,0.2c-0.1,0-0.2,0.1-0.3,0.1c-0.2,0.1-0.4,0.1-0.6,0.2
			c-0.4,0.1-0.7,0.2-1.1,0.2c-0.7,0.1-1.5,0.1-2.2,0.1c-0.7,0-1.4-0.2-2.1-0.2c-0.7-0.2-1.3-0.3-2-0.5c-2.6-0.8-5-1.9-7.3-3.2
			c-4.6-2.6-8.7-5.8-12.6-9.3l-1.5-1.3l-1.4-1.4l-2.8-2.7c-1.8-1.9-3.6-3.7-5.3-5.6c-1.7-1.9-3.5-3.8-5.2-5.7
			c-1.7-1.9-3.4-3.9-5.1-5.8c-6.7-7.8-13.2-15.8-19.5-24c-3.2-4.1-6.3-8.2-9.3-12.3c-1.5-2.1-3-4.2-4.5-6.3
			c-1.5-2.1-2.9-4.3-4.3-6.6l-0.2-0.4l0.2-0.5c1.2-2.9,2.2-6,3.1-9.1c0.9-3.1,1.7-6.2,2.4-9.3c0.6-3.1,1.1-6.3,1.2-9.4
			c0.1-3.1-0.1-6.3-1.2-9.2l0.1,0.2c-1-1.5-1.7-3-2.3-4.6c-0.6-1.6-1.2-3.2-1.6-4.8c-0.4-1.6-0.8-3.3-1-4.9c-0.2-1.7-0.4-3.3-0.4-5
			l0,0.2c-0.9-2.9-2-5.9-3.2-8.7c-1.2-2.9-2.5-5.7-4-8.3c-1.5-2.7-3.2-5.3-5.3-7.5c-1-1.1-2.2-2.1-3.5-2.9c-1.3-0.8-2.7-1.3-4.2-1.4
			l0.1,0c-8.6,1.3-17.2,2.7-25.7,4.4c-4.3,0.9-8.5,1.8-12.7,2.8c-2.1,0.5-4.2,1.1-6.3,1.7
			C1782.6,1151.5,1780.6,1152.3,1778.6,1153.3z"/>
		<path class="st11" d="M1825.8,853.1c3.8,18.5,15.3,58.3,71.5,83.3c0,0-32.9-14.8-46.5-53.2c0,0,47,48.1,97.5,57.8
			c50.5,9.7,66.4-17.5,66.4-17.5s5.7-82.3-83.1-109.2C1876.7,797.7,1819.2,820.9,1825.8,853.1z"/>
	</g>
	<g>
		<path class="st32" d="M1549.4,1071.6c-3.5,9.7,1.6,20.4,11.4,23.9c1.2,0.4,2.4,0.7,3.5,0.9c3.1,0.5,6.3,0.1,9.1-0.9
			c1.1-0.4,2.2-0.9,3.2-1.5c2.6-1.6,4.9-3.8,6.5-6.5c0.6-1,1.1-2.1,1.6-3.3c3.5-9.7-1.6-20.4-11.4-23.9c-1.2-0.4-2.4-0.7-3.5-0.9
			c-3.1-0.5-6.3-0.1-9.1,0.9c-1.1,0.4-2.2,0.9-3.2,1.5c-2.6,1.6-4.9,3.8-6.5,6.5C1550.4,1069.3,1549.8,1070.4,1549.4,1071.6z"/>
		<g>
			<path class="st0" d="M1551.4,1071.1c-0.2,0.5,0.1,1.1,0.6,1.3c0.3,0.1,0.6,0.1,0.9-0.1c0.2-0.1,0.3-0.3,0.4-0.4
				c1.2-2.9,3.3-5.2,5.8-6.7c1-0.6,2.1-1.1,3.2-1.5c2.8-1,5.9-1.1,8.9-0.2c0.2,0.1,0.4,0.1,0.5,0c0.3-0.1,0.6-0.3,0.7-0.6
				c0.2-0.6-0.1-1.2-0.7-1.3c-0.4-0.1-0.7-0.2-1.1-0.3c-3.2-0.7-6.4-0.4-9.3,0.6c-1.1,0.4-2.2,0.9-3.2,1.5c-2.6,1.6-4.9,3.9-6.3,6.8
				C1551.7,1070.4,1551.5,1070.7,1551.4,1071.1C1551.4,1071.1,1551.4,1071.1,1551.4,1071.1z"/>
		</g>
	</g>
	<g>
		<path class="st32" d="M2372.6,437.8c-9.3,26.3,4.4,55.1,30.7,64.4c3.2,1.1,6.4,1.9,9.6,2.4c8.4,1.2,16.9,0.3,24.6-2.5
			c3-1.1,5.9-2.5,8.6-4.1c7-4.2,13.1-10.2,17.4-17.5c1.7-2.8,3.1-5.8,4.2-8.9c9.3-26.3-4.4-55.1-30.7-64.4c-3.2-1.1-6.4-1.9-9.6-2.4
			c-8.4-1.2-16.9-0.3-24.6,2.5c-3,1.1-5.9,2.5-8.6,4.1c-7,4.2-13.1,10.2-17.4,17.5C2375.2,431.7,2373.8,434.7,2372.6,437.8z"/>
		<g>
			<path class="st0" d="M2377.9,436.6c-0.5,1.4,0.2,3,1.7,3.5c0.8,0.3,1.7,0.2,2.4-0.3c0.4-0.3,0.8-0.7,1-1.2
				c3.3-7.7,8.9-13.9,15.6-18.1c2.7-1.7,5.6-3.1,8.6-4.1c7.6-2.6,15.9-2.9,24.1-0.6c0.5,0.1,1,0.1,1.4,0c0.9-0.2,1.6-0.8,1.9-1.7
				c0.5-1.5-0.3-3.1-1.8-3.6c-1-0.3-2-0.5-3-0.7c-8.5-1.8-17.2-1.1-25,1.7c-3,1.1-5.9,2.4-8.6,4.1c-7.1,4.3-13.1,10.6-17,18.4
				c-0.4,0.8-0.8,1.7-1.2,2.5C2378,436.5,2377.9,436.5,2377.9,436.6z"/>
		</g>
	</g>
	<g>
		<path class="st32" d="M1601.9,1043.6c-3.5,9.7,1.6,20.4,11.4,23.9c1.2,0.4,2.4,0.7,3.5,0.9c3.1,0.5,6.3,0.1,9.1-0.9
			c1.1-0.4,2.2-0.9,3.2-1.5c2.6-1.6,4.9-3.8,6.5-6.5c0.6-1,1.1-2.1,1.6-3.3c3.5-9.7-1.6-20.4-11.4-23.9c-1.2-0.4-2.4-0.7-3.5-0.9
			c-3.1-0.5-6.3-0.1-9.1,0.9c-1.1,0.4-2.2,0.9-3.2,1.5c-2.6,1.6-4.9,3.8-6.5,6.5C1602.8,1041.3,1602.3,1042.4,1601.9,1043.6z"/>
		<g>
			<path class="st0" d="M1603.9,1043.1c-0.2,0.5,0.1,1.1,0.6,1.3c0.3,0.1,0.6,0.1,0.9-0.1c0.2-0.1,0.3-0.3,0.4-0.4
				c1.2-2.9,3.3-5.2,5.8-6.7c1-0.6,2.1-1.1,3.2-1.5c2.8-1,5.9-1.1,8.9-0.2c0.2,0.1,0.4,0.1,0.5,0c0.3-0.1,0.6-0.3,0.7-0.6
				c0.2-0.6-0.1-1.2-0.7-1.3c-0.4-0.1-0.7-0.2-1.1-0.3c-3.2-0.7-6.4-0.4-9.3,0.6c-1.1,0.4-2.2,0.9-3.2,1.5c-2.6,1.6-4.9,3.9-6.3,6.8
				C1604.2,1042.4,1604,1042.7,1603.9,1043.1C1603.9,1043.1,1603.9,1043.1,1603.9,1043.1z"/>
		</g>
	</g>
	<g>
		<path class="st32" d="M1549.7,1017.2c-3.5,9.7,1.6,20.4,11.4,23.9c1.2,0.4,2.4,0.7,3.5,0.9c3.1,0.5,6.3,0.1,9.1-0.9
			c1.1-0.4,2.2-0.9,3.2-1.5c2.6-1.6,4.9-3.8,6.5-6.5c0.6-1,1.1-2.1,1.6-3.3c3.5-9.7-1.6-20.4-11.4-23.9c-1.2-0.4-2.4-0.7-3.5-0.9
			c-3.1-0.5-6.3-0.1-9.1,0.9c-1.1,0.4-2.2,0.9-3.2,1.5c-2.6,1.6-4.9,3.8-6.5,6.5C1550.6,1014.9,1550.1,1016,1549.7,1017.2z"/>
		<g>
			<path class="st0" d="M1551.6,1016.7c-0.2,0.5,0.1,1.1,0.6,1.3c0.3,0.1,0.6,0.1,0.9-0.1c0.2-0.1,0.3-0.3,0.4-0.4
				c1.2-2.9,3.3-5.2,5.8-6.7c1-0.6,2.1-1.1,3.2-1.5c2.8-1,5.9-1.1,8.9-0.2c0.2,0.1,0.4,0.1,0.5,0c0.3-0.1,0.6-0.3,0.7-0.6
				c0.2-0.6-0.1-1.2-0.7-1.3c-0.4-0.1-0.7-0.2-1.1-0.3c-3.2-0.7-6.4-0.4-9.3,0.6c-1.1,0.4-2.2,0.9-3.2,1.5c-2.6,1.6-4.9,3.9-6.3,6.8
				C1551.9,1016,1551.8,1016.3,1551.6,1016.7C1551.6,1016.7,1551.6,1016.7,1551.6,1016.7z"/>
		</g>
	</g>
	<g>
		<path class="st32" d="M1601.9,978.9c-3.5,9.7,1.6,20.4,11.4,23.9c1.2,0.4,2.4,0.7,3.5,0.9c3.1,0.5,6.3,0.1,9.1-0.9
			c1.1-0.4,2.2-0.9,3.2-1.5c2.6-1.6,4.9-3.8,6.5-6.5c0.6-1,1.1-2.1,1.6-3.3c3.5-9.7-1.6-20.4-11.4-23.9c-1.2-0.4-2.4-0.7-3.5-0.9
			c-3.1-0.5-6.3-0.1-9.1,0.9c-1.1,0.4-2.2,0.9-3.2,1.5c-2.6,1.6-4.9,3.8-6.5,6.5C1602.8,976.6,1602.3,977.7,1601.9,978.9z"/>
		<g>
			<path class="st0" d="M1603.9,978.4c-0.2,0.5,0.1,1.1,0.6,1.3c0.3,0.1,0.6,0.1,0.9-0.1c0.2-0.1,0.3-0.3,0.4-0.4
				c1.2-2.9,3.3-5.2,5.8-6.7c1-0.6,2.1-1.1,3.2-1.5c2.8-1,5.9-1.1,8.9-0.2c0.2,0.1,0.4,0.1,0.5,0c0.3-0.1,0.6-0.3,0.7-0.6
				c0.2-0.6-0.1-1.2-0.7-1.3c-0.4-0.1-0.7-0.2-1.1-0.3c-3.2-0.7-6.4-0.4-9.3,0.6c-1.1,0.4-2.2,0.9-3.2,1.5c-2.6,1.6-4.9,3.9-6.3,6.8
				C1604.2,977.7,1604,978,1603.9,978.4C1603.9,978.4,1603.9,978.4,1603.9,978.4z"/>
		</g>
	</g>
	<g>
		<path class="st32" d="M1310.5,1071.6c-3.5,9.7,1.6,20.4,11.4,23.9c1.2,0.4,2.4,0.7,3.5,0.9c3.1,0.5,6.3,0.1,9.1-0.9
			c1.1-0.4,2.2-0.9,3.2-1.5c2.6-1.6,4.9-3.8,6.5-6.5c0.6-1,1.1-2.1,1.6-3.3c3.5-9.7-1.6-20.4-11.4-23.9c-1.2-0.4-2.4-0.7-3.5-0.9
			c-3.1-0.5-6.3-0.1-9.1,0.9c-1.1,0.4-2.2,0.9-3.2,1.5c-2.6,1.6-4.9,3.8-6.5,6.5C1311.4,1069.3,1310.9,1070.4,1310.5,1071.6z"/>
		<g>
			<path class="st0" d="M1312.4,1071.1c-0.2,0.5,0.1,1.1,0.6,1.3c0.3,0.1,0.6,0.1,0.9-0.1c0.2-0.1,0.3-0.3,0.4-0.4
				c1.2-2.9,3.3-5.2,5.8-6.7c1-0.6,2.1-1.1,3.2-1.5c2.8-1,5.9-1.1,8.9-0.2c0.2,0.1,0.4,0.1,0.5,0c0.3-0.1,0.6-0.3,0.7-0.6
				c0.2-0.6-0.1-1.2-0.7-1.3c-0.4-0.1-0.7-0.2-1.1-0.3c-3.2-0.7-6.4-0.4-9.3,0.6c-1.1,0.4-2.2,0.9-3.2,1.5c-2.6,1.6-4.9,3.9-6.3,6.8
				C1312.7,1070.4,1312.6,1070.7,1312.4,1071.1C1312.4,1071.1,1312.4,1071.1,1312.4,1071.1z"/>
		</g>
	</g>
	<g>
		<path class="st32" d="M1310.5,1027c-3.5,9.7,1.6,20.4,11.4,23.9c1.2,0.4,2.4,0.7,3.5,0.9c3.1,0.5,6.3,0.1,9.1-0.9
			c1.1-0.4,2.2-0.9,3.2-1.5c2.6-1.6,4.9-3.8,6.5-6.5c0.6-1,1.1-2.1,1.6-3.3c3.5-9.7-1.6-20.4-11.4-23.9c-1.2-0.4-2.4-0.7-3.5-0.9
			c-3.1-0.5-6.3-0.1-9.1,0.9c-1.1,0.4-2.2,0.9-3.2,1.5c-2.6,1.6-4.9,3.8-6.5,6.5C1311.4,1024.7,1310.9,1025.8,1310.5,1027z"/>
		<g>
			<path class="st0" d="M1312.4,1026.5c-0.2,0.5,0.1,1.1,0.6,1.3c0.3,0.1,0.6,0.1,0.9-0.1c0.2-0.1,0.3-0.3,0.4-0.4
				c1.2-2.9,3.3-5.2,5.8-6.7c1-0.6,2.1-1.1,3.2-1.5c2.8-1,5.9-1.1,8.9-0.2c0.2,0.1,0.4,0.1,0.5,0c0.3-0.1,0.6-0.3,0.7-0.6
				c0.2-0.6-0.1-1.2-0.7-1.3c-0.4-0.1-0.7-0.2-1.1-0.3c-3.2-0.7-6.4-0.4-9.3,0.6c-1.1,0.4-2.2,0.9-3.2,1.5c-2.6,1.6-4.9,3.9-6.3,6.8
				C1312.7,1025.8,1312.6,1026.1,1312.4,1026.5C1312.4,1026.5,1312.4,1026.5,1312.4,1026.5z"/>
		</g>
	</g>
	<g>
		<path class="st32" d="M1249.4,1050.4c-3.5,9.7,1.6,20.4,11.4,23.9c1.2,0.4,2.4,0.7,3.5,0.9c3.1,0.5,6.3,0.1,9.1-0.9
			c1.1-0.4,2.2-0.9,3.2-1.5c2.6-1.6,4.9-3.8,6.5-6.5c0.6-1,1.1-2.1,1.6-3.3c3.5-9.7-1.6-20.4-11.4-23.9c-1.2-0.4-2.4-0.7-3.5-0.9
			c-3.1-0.5-6.3-0.1-9.1,0.9c-1.1,0.4-2.2,0.9-3.2,1.5c-2.6,1.6-4.9,3.8-6.5,6.5C1250.4,1048.2,1249.9,1049.3,1249.4,1050.4z"/>
		<g>
			<path class="st0" d="M1251.4,1050c-0.2,0.5,0.1,1.1,0.6,1.3c0.3,0.1,0.6,0.1,0.9-0.1c0.2-0.1,0.3-0.3,0.4-0.4
				c1.2-2.9,3.3-5.2,5.8-6.7c1-0.6,2.1-1.1,3.2-1.5c2.8-1,5.9-1.1,8.9-0.2c0.2,0.1,0.4,0.1,0.5,0c0.3-0.1,0.6-0.3,0.7-0.6
				c0.2-0.6-0.1-1.2-0.7-1.3c-0.4-0.1-0.7-0.2-1.1-0.3c-3.2-0.7-6.4-0.4-9.3,0.6c-1.1,0.4-2.2,0.9-3.2,1.5c-2.6,1.6-4.9,3.9-6.3,6.8
				C1251.7,1049.3,1251.6,1049.6,1251.4,1050C1251.4,1049.9,1251.4,1049.9,1251.4,1050z"/>
		</g>
	</g>
	<g>
		<path class="st32" d="M1260.9,999.3c-3.5,9.7,1.6,20.4,11.4,23.9c1.2,0.4,2.4,0.7,3.5,0.9c3.1,0.5,6.3,0.1,9.1-0.9
			c1.1-0.4,2.2-0.9,3.2-1.5c2.6-1.6,4.9-3.8,6.5-6.5c0.6-1,1.1-2.1,1.6-3.3c3.5-9.7-1.6-20.4-11.4-23.9c-1.2-0.4-2.4-0.7-3.5-0.9
			c-3.1-0.5-6.3-0.1-9.1,0.9c-1.1,0.4-2.2,0.9-3.2,1.5c-2.6,1.6-4.9,3.8-6.5,6.5C1261.8,997,1261.3,998.1,1260.9,999.3z"/>
		<g>
			<path class="st0" d="M1262.8,998.8c-0.2,0.5,0.1,1.1,0.6,1.3c0.3,0.1,0.6,0.1,0.9-0.1c0.2-0.1,0.3-0.3,0.4-0.4
				c1.2-2.9,3.3-5.2,5.8-6.7c1-0.6,2.1-1.1,3.2-1.5c2.8-1,5.9-1.1,8.9-0.2c0.2,0.1,0.4,0.1,0.5,0c0.3-0.1,0.6-0.3,0.7-0.6
				c0.2-0.6-0.1-1.2-0.7-1.3c-0.4-0.1-0.7-0.2-1.1-0.3c-3.2-0.7-6.4-0.4-9.3,0.6c-1.1,0.4-2.2,0.9-3.2,1.5c-2.6,1.6-4.9,3.9-6.3,6.8
				C1263.1,998.1,1263,998.4,1262.8,998.8C1262.8,998.8,1262.8,998.8,1262.8,998.8z"/>
		</g>
	</g>
	<g>
		<path class="st0" d="M1683.4,855.3c0,0,94.5-9.9,101.8,5.1c10.9,22.4,0.1,43.7,4.2,54.9c3.3,9.1,5.6,15.7,5.6,15.7
			s-12.6-4.3-19.2-7.2c-6-2.7-77.1,3.5-94.7-1C1669.5,919.8,1665.4,855.3,1683.4,855.3z"/>
		<g>
			<circle class="st9" cx="1705.2" cy="889.3" r="9.2"/>
			<circle class="st9" cx="1733.5" cy="889.3" r="9.2"/>
			<circle class="st9" cx="1765" cy="889.3" r="9.2"/>
		</g>
	</g>
	<g>
		<path class="st0" d="M1606.2,759.1c0,0,94.5-9.9,101.8,5.1c10.9,22.4,0.1,43.7,4.2,54.9c3.3,9.1,5.6,15.7,5.6,15.7
			s-12.6-4.3-19.2-7.2c-6-2.7-77.1,3.5-94.7-1C1592.2,823.6,1588.2,759.1,1606.2,759.1z"/>
		<g>
			<path class="st9" d="M1692.8,781.8h-77.4c-0.6,0-1-0.5-1-1v-4.1c0-0.6,0.5-1,1-1h77.4c0.6,0,1,0.5,1,1v4.1
				C1693.9,781.4,1693.4,781.8,1692.8,781.8z"/>
			<path class="st9" d="M1692.8,793.6h-77.4c-0.6,0-1-0.5-1-1v-4.1c0-0.6,0.5-1,1-1h77.4c0.6,0,1,0.5,1,1v4.1
				C1693.9,793.2,1693.4,793.6,1692.8,793.6z"/>
			<path class="st9" d="M1691.9,805.4h-76.5c-0.6,0-1-0.5-1-1v-4.1c0-0.6,0.5-1,1-1h76.5c0.6,0,1,0.5,1,1v4.1
				C1692.9,805,1692.4,805.4,1691.9,805.4z"/>
		</g>
	</g>
	<g>
		<path class="st0" d="M957.2,740.6c0,0,94.5-9.9,101.8,5.1c10.9,22.4,0.1,43.7,4.2,54.9c3.3,9.1,5.6,15.7,5.6,15.7
			s-12.6-4.3-19.2-7.2c-6-2.7-77.1,3.5-94.7-1C943.2,805.1,939.2,740.6,957.2,740.6z"/>
		<g>
			<circle class="st9" cx="979" cy="774.6" r="9.2"/>
			<circle class="st9" cx="1007.3" cy="774.6" r="9.2"/>
			<circle class="st9" cx="1038.8" cy="774.6" r="9.2"/>
		</g>
	</g>
	<g>
		<g>
			<g>
				<path class="st0" d="M917.8,983.9c-1,0-1.7-0.8-1.7-1.7v-85.7c0-1,0.8-1.7,1.7-1.7s1.7,0.8,1.7,1.7v85.7
					C919.5,983.1,918.7,983.9,917.8,983.9z"/>
			</g>
			<g>
				<path class="st0" d="M963.3,941h-91.1c-1,0-1.7-0.8-1.7-1.7s0.8-1.7,1.7-1.7h91.1c1,0,1.7,0.8,1.7,1.7S964.2,941,963.3,941z"/>
			</g>
		</g>
		<g>
			<g>
				<path class="st0" d="M2199.7,1013.1c-1,0-1.7-0.8-1.7-1.7v-48.2c0-1,0.8-1.7,1.7-1.7s1.7,0.8,1.7,1.7v48.2
					C2201.5,1012.3,2200.7,1013.1,2199.7,1013.1z"/>
			</g>
			<g>
				<path class="st0" d="M2225.3,989h-51.2c-1,0-1.7-0.8-1.7-1.7s0.8-1.7,1.7-1.7h51.2c1,0,1.7,0.8,1.7,1.7S2226.3,989,2225.3,989z"
					/>
			</g>
		</g>
		<g>
			<g>
				<path class="st0" d="M2316,1473.4c-1,0-1.7-0.8-1.7-1.7v-48.2c0-1,0.8-1.7,1.7-1.7s1.7,0.8,1.7,1.7v48.2
					C2317.7,1472.7,2316.9,1473.4,2316,1473.4z"/>
			</g>
			<g>
				<path class="st0" d="M2341.6,1449.4h-51.2c-1,0-1.7-0.8-1.7-1.7s0.8-1.7,1.7-1.7h51.2c1,0,1.7,0.8,1.7,1.7
					S2342.5,1449.4,2341.6,1449.4z"/>
			</g>
		</g>
		<g>
			<g>
				<path class="st0" d="M2343.3,884.2c-0.5,0-0.9-0.4-0.9-0.9v-25.7c0-0.5,0.4-0.9,0.9-0.9c0.5,0,0.9,0.4,0.9,0.9v25.7
					C2344.2,883.8,2343.8,884.2,2343.3,884.2z"/>
			</g>
			<g>
				<path class="st0" d="M2356.9,871.4h-27.3c-0.5,0-0.9-0.4-0.9-0.9c0-0.5,0.4-0.9,0.9-0.9h27.3c0.5,0,0.9,0.4,0.9,0.9
					C2357.9,870.9,2357.5,871.4,2356.9,871.4z"/>
			</g>
		</g>
		<g>
			<g>
				<path class="st0" d="M642.6,893.9c-0.5,0-0.9-0.4-0.9-0.9v-25.7c0-0.5,0.4-0.9,0.9-0.9c0.5,0,0.9,0.4,0.9,0.9V893
					C643.5,893.5,643.1,893.9,642.6,893.9z"/>
			</g>
			<g>
				<path class="st0" d="M656.2,881h-27.3c-0.5,0-0.9-0.4-0.9-0.9c0-0.5,0.4-0.9,0.9-0.9h27.3c0.5,0,0.9,0.4,0.9,0.9
					C657.2,880.6,656.8,881,656.2,881z"/>
			</g>
		</g>
		<g>
			<g>
				<path class="st0" d="M2314.2,654.9c-1,0-1.7-0.8-1.7-1.7V605c0-1,0.8-1.7,1.7-1.7c1,0,1.7,0.8,1.7,1.7v48.2
					C2316,654.2,2315.2,654.9,2314.2,654.9z"/>
			</g>
			<g>
				<path class="st0" d="M2339.8,630.9h-51.2c-1,0-1.7-0.8-1.7-1.7s0.8-1.7,1.7-1.7h51.2c1,0,1.7,0.8,1.7,1.7
					S2340.8,630.9,2339.8,630.9z"/>
			</g>
		</g>
		<g>
			<g>
				<path class="st0" d="M1400.8,698.5c-1,0-1.7-0.8-1.7-1.7v-72.3c0-1,0.8-1.7,1.7-1.7c1,0,1.7,0.8,1.7,1.7v72.3
					C1402.6,697.7,1401.8,698.5,1400.8,698.5z"/>
			</g>
			<g>
				<path class="st0" d="M1439.2,662.3h-76.8c-1,0-1.7-0.8-1.7-1.7s0.8-1.7,1.7-1.7h76.8c1,0,1.7,0.8,1.7,1.7
					S1440.2,662.3,1439.2,662.3z"/>
			</g>
		</g>
		<g>
			<circle class="st0" cx="1455.2" cy="824.9" r="21.2"/>
		</g>
		<g>
			<circle class="st0" cx="500.8" cy="1258.5" r="21.2"/>
		</g>
		<g>
			<circle class="st0" cx="2174.1" cy="1324.1" r="11.9"/>
		</g>
		<g>
			<circle class="st0" cx="845.4" cy="802.4" r="11.9"/>
		</g>
		<g>
			<circle class="st0" cx="603" cy="1341.4" r="11.9"/>
		</g>
		<g>
			<circle class="st0" cx="681.4" cy="909.2" r="11.9"/>
		</g>
		<g>
			<circle class="st0" cx="2341.6" cy="1088.5" r="11.9"/>
		</g>
		<g>
			<circle class="st0" cx="2126" cy="735.4" r="11.9"/>
		</g>
		<g>
			<circle class="st0" cx="1521.8" cy="1329.5" r="11.9"/>
		</g>
		<g>
			<circle class="st0" cx="2162.3" cy="685.7" r="17.9"/>
		</g>
		<g>
			<circle class="st0" cx="1415.3" cy="979.8" r="17.9"/>
		</g>
		<g>
			<path class="st0" d="M1487,1196.1c-21.4,0-38.8-17.4-38.8-38.8c0-21.4,17.4-38.8,38.8-38.8c21.4,0,38.8,17.4,38.8,38.8
				C1525.8,1178.7,1508.4,1196.1,1487,1196.1z M1487,1122c-19.5,0-35.3,15.8-35.3,35.3c0,19.5,15.8,35.3,35.3,35.3
				c19.5,0,35.3-15.8,35.3-35.3C1522.3,1137.8,1506.4,1122,1487,1122z"/>
		</g>
		<g>
			<path class="st0" d="M806.6,706.7c-21.4,0-38.8-17.4-38.8-38.8c0-21.4,17.4-38.8,38.8-38.8c21.4,0,38.8,17.4,38.8,38.8
				C845.4,689.3,828,706.7,806.6,706.7z M806.6,632.6c-19.5,0-35.3,15.8-35.3,35.3c0,19.5,15.8,35.3,35.3,35.3
				c19.5,0,35.3-15.8,35.3-35.3C841.9,648.4,826.1,632.6,806.6,632.6z"/>
		</g>
		<g>
			<path class="st0" d="M806.6,1213.4c-12.2,0-22.2-10-22.2-22.2c0-12.2,10-22.2,22.2-22.2s22.2,10,22.2,22.2
				C828.8,1203.4,818.9,1213.4,806.6,1213.4z M806.6,1171.8c-10.7,0-19.4,8.7-19.4,19.4c0,10.7,8.7,19.4,19.4,19.4
				c10.7,0,19.4-8.7,19.4-19.4C826,1180.5,817.3,1171.8,806.6,1171.8z"/>
		</g>
	</g>
	<g>
		<path class="st0" d="M2377.9,288.3c-0.5,1.4,0.2,3,1.7,3.5c0.8,0.3,1.7,0.2,2.4-0.3c0.4-0.3,0.8-0.7,1-1.2
			c3.3-7.7,8.9-13.9,15.6-18.1c2.7-1.7,5.6-3.1,8.6-4.1c7.6-2.6,15.9-2.9,24.1-0.6c0.5,0.1,1,0.1,1.4,0c0.9-0.2,1.6-0.8,1.9-1.7
			c0.5-1.5-0.3-3.1-1.8-3.6c-1-0.3-2-0.5-3-0.7c-8.5-1.8-17.2-1.1-25,1.7c-3,1.1-5.9,2.4-8.6,4.1c-7.1,4.3-13.1,10.6-17,18.4
			c-0.4,0.8-0.8,1.7-1.2,2.5C2378,288.2,2377.9,288.3,2377.9,288.3z"/>
	</g>
</g>
</svg>
